<?xml version="1.0" encoding="utf-8"?>
<!-- Generator: Adobe Illustrator 24.0.1, SVG Export Plug-In . SVG Version: 6.00 Build 0)  -->
<svg version="1.1" id="Layer_1" xmlns="http://www.w3.org/2000/svg" xmlns:xlink="http://www.w3.org/1999/xlink" x="0px" y="0px"
	 viewBox="0 0 2040 286" style="enable-background:new 0 0 2040 286;" xml:space="preserve">
<style type="text/css">
	.st0{fill:#25282C;}
</style>
<title>header-illus-01</title>
<path class="st0" d="M1475.9,2.3c-0.4,0-0.7-0.2-0.8-0.5L1465-20l-22-2.8c-0.3,0-0.5-0.2-0.7-0.4c-0.2-0.2-0.2-0.5-0.1-0.8
	l13.6-43.3c0.1-0.5,0.6-0.7,1.1-0.6l25.5,5.4c0.5,0.1,0.8,0.6,0.7,1.1c-0.1,0.5-0.6,0.8-1.1,0.7l-24.6-5.2l-13,41.5l21.4,2.8
	c0.3,0,0.6,0.2,0.7,0.5L1476.7,1c0.2,0.5,0,1-0.5,1.2C1476.2,2.3,1476,2.3,1475.9,2.3z"/>
<path class="st0" d="M1475.9,2.3c-0.1,0-0.2,0-0.4-0.1c-0.4-0.2-0.6-0.5-0.6-1l5.6-56.8l-14.1,34.9c-0.2,0.5-0.7,0.7-1.2,0.5
	c-0.5-0.2-0.7-0.7-0.5-1.2l16.6-40.9c0.2-0.4,0.6-0.7,1.1-0.5c0.5,0.1,0.8,0.5,0.7,1l-6,60.2l17.5-20.5c0.3-0.4,0.9-0.4,1.3-0.1
	c0.4,0.3,0.4,0.9,0.1,1.3L1476.6,2C1476.4,2.2,1476.2,2.3,1475.9,2.3z"/>
<path class="st0" d="M1457.5,27.1c-0.4,0-0.8-0.3-0.9-0.7L1442.4-23l-17.3-2.4c-0.3,0-0.6-0.2-0.7-0.5l-19.3-37.1l-46.8,0.1l0,0
	c-0.3,0-0.5-0.1-0.7-0.3c-0.2-0.2-0.2-0.5-0.2-0.8l8.8-41.4c0.1-0.4,0.5-0.7,0.9-0.7h17.6c0.5,0,0.9,0.4,0.9,0.9c0,0,0,0,0,0
	c0,0.5-0.4,0.9-0.9,0.9l0,0h-16.9l-8.5,39.5l46.3-0.1l0,0c0.3,0,0.7,0.2,0.8,0.5l19.3,37.2l17.4,2.4c0.4,0.1,0.7,0.3,0.8,0.7
	l14.4,50c0.1,0.5-0.1,1-0.6,1.1c0,0,0,0,0,0C1457.7,27.1,1457.6,27.1,1457.5,27.1z"/>
<path class="st0" d="M1408.7,40.2h-0.2c-0.3-0.1-0.6-0.3-0.7-0.6l-18.7-60.7c-0.1-0.5,0.1-1,0.6-1.2c0.5-0.1,1,0.1,1.2,0.6
	l18.2,59.1l5.9-6.8l-24.1-67.1c-0.2-0.5,0.1-1,0.5-1.2c0,0,0,0,0,0c0.5-0.2,1,0.1,1.2,0.5c0,0,0,0,0,0l24.3,67.6
	c0.1,0.3,0.1,0.7-0.2,0.9l-7.3,8.5C1409.2,40.1,1409,40.2,1408.7,40.2z"/>
<path class="st0" d="M1371.6,41.5c-0.2,0-0.3,0-0.4-0.1l-18.5-9.8c-0.3-0.2-0.5-0.5-0.5-0.9l3.4-60.1c0.1-0.5,0.5-0.9,1-0.9
	c0.5,0,0.9,0.5,0.9,1c0,0,0,0,0,0l-3.4,59.5l16.4,8.7l-6.5-55.8c0-0.5,0.3-0.9,0.8-1c0.5,0,0.9,0.3,1,0.8l6.7,57.6
	c0,0.3-0.1,0.7-0.4,0.9C1371.9,41.5,1371.7,41.6,1371.6,41.5z"/>
<path class="st0" d="M1353.1,31.8c-0.1,0-0.3,0-0.4-0.1l-24.6-12.1c-0.3-0.2-0.5-0.5-0.5-0.8c0-0.3,0.2-0.7,0.5-0.8l18.3-10
	c0.3-0.2,0.7-0.2,0.9,0l6.8,4.3c0.4,0.3,0.6,0.9,0.3,1.3s-0.9,0.6-1.3,0.3l0,0l-6.3-4l-16.2,8.9l23,11.4c0.5,0.2,0.6,0.8,0.4,1.2
	C1353.7,31.5,1353.4,31.7,1353.1,31.8L1353.1,31.8z"/>
<path class="st0" d="M1346.8,9.6c-0.4,0-0.8-0.3-0.9-0.8l-14.5-72.5c-0.1-0.4,0.1-0.8,0.5-1l11.5-5.2c0.3-0.1,0.6-0.1,0.8,0
	c0.3,0.1,0.4,0.4,0.5,0.6l11.7,54.8c0.1,0.5-0.2,1-0.7,1.1c0,0,0,0,0,0c-0.5,0.1-1-0.2-1.1-0.7l-11.4-53.7l-9.8,4.5l14.3,71.7
	c0.1,0.5-0.2,1-0.7,1.1L1346.8,9.6z"/>
<path class="st0" d="M1328.5,19.6c-0.5,0-0.9-0.3-0.9-0.8l-11.5-85.3c0-0.3,0.1-0.6,0.3-0.8c0.2-0.2,0.5-0.3,0.8-0.2l15.3,2.9
	c0.5,0.1,0.8,0.6,0.7,1.1c-0.1,0.5-0.6,0.8-1.1,0.7c0,0,0,0,0,0l-14-2.6l11.3,84.1c0,0.5-0.3,0.9-0.8,1L1328.5,19.6z"/>
<path class="st0" d="M1318.8,56.6c-0.2,0-0.4-0.1-0.5-0.2l-35.6-24.8c-0.3-0.2-0.4-0.5-0.4-0.8l2.7-47.3c0-0.3,0.2-0.6,0.4-0.7
	c0.2-0.2,0.5-0.2,0.8-0.1l18,6.1l4.7-9.3c0.2-0.3,0.5-0.5,0.8-0.5c0.4,0,0.7,0.2,0.8,0.5l23.7,50.8c0.2,0.3,0.2,0.7,0.1,1
	l-14.9,24.8c-0.1,0.2-0.4,0.4-0.6,0.4L1318.8,56.6z M1284.2,30.4l34.3,24l14.1-23.5L1309.8-18l-4.2,8.3c-0.2,0.4-0.7,0.6-1.1,0.4
	l-17.6-6L1284.2,30.4z"/>
<path class="st0" d="M1318.8,56.6c-0.4,0-0.8-0.3-0.9-0.7l-14.1-65.7c-0.1-0.5,0.2-1,0.7-1.1c0,0,0,0,0,0c0.5-0.1,1,0.2,1.1,0.7
	l14.1,65.7c0.1,0.5-0.2,1-0.7,1.1c0,0,0,0,0,0L1318.8,56.6z"/>
<path class="st0" d="M1348.8,61.4h-0.2c-0.3-0.1-0.5-0.2-0.7-0.5l-15-29.4c-0.3-0.4-0.1-1,0.3-1.3c0.4-0.3,1-0.1,1.3,0.3
	c0,0,0.1,0.1,0.1,0.2l14.5,28.4l21.9-19c0.4-0.3,1-0.3,1.3,0.1c0,0,0,0,0,0c0.3,0.4,0.3,1-0.1,1.3l-22.8,19.8
	C1349.2,61.3,1349,61.4,1348.8,61.4z"/>
<path class="st0" d="M1436.6,68.4L1436.6,68.4l-50.6-3.6c-0.5,0-0.9-0.4-0.9-0.9c0-0.5,0.4-0.9,0.9-0.9c0,0,0.1,0,0.1,0l49.4,3.5
	l-6.2-50.5l-12.5,15.4c-0.3,0.4-0.9,0.5-1.3,0.1c0,0,0,0,0,0c-0.4-0.3-0.5-0.9-0.1-1.3c0,0,0,0,0,0l13.9-17.1
	c0.3-0.4,0.9-0.5,1.3-0.2c0.2,0.2,0.3,0.4,0.3,0.6l6.6,53.8c0,0.3-0.1,0.6-0.2,0.8C1437.1,68.2,1436.8,68.4,1436.6,68.4z"/>
<path class="st0" d="M1322.2,129.1c-0.2,0-0.3,0-0.5-0.1c-0.3-0.2-0.5-0.5-0.4-0.9l11-96.2c0.1-0.5,0.5-0.9,1-0.8s0.9,0.5,0.8,1l0,0
	l-10.7,94.1l23.2-16.7l1.2-49.1c0-0.5,0.4-0.9,1-0.9c0.5,0,0.9,0.4,0.9,1l-1.3,49.5c0,0.3-0.2,0.6-0.4,0.7l-25.3,18.2
	C1322.6,129,1322.4,129.1,1322.2,129.1z"/>
<path class="st0" d="M1322.2,129.1c-0.3,0-0.6-0.1-0.7-0.4l-24.9-33.5c-0.2-0.3-0.2-0.7-0.1-1l21.4-39.1c0.2-0.5,0.8-0.7,1.2-0.4
	c0.5,0.2,0.7,0.8,0.4,1.2c0,0,0,0.1,0,0.1l-21.1,38.5l24.5,33c0.3,0.4,0.2,1-0.2,1.3C1322.6,129,1322.4,129.1,1322.2,129.1z"/>
<path class="st0" d="M1436.6,68.4h-0.2c-0.4-0.1-0.7-0.4-0.8-0.8l-11.9-94.1c-0.1-0.4,0.2-0.9,0.6-1c0.4-0.1,0.9,0,1.1,0.4
	l32.7,52.8c0.2,0.3,0.2,0.6,0,0.9l-20.8,41.3C1437.2,68.2,1436.9,68.3,1436.6,68.4z M1426.2-22.6l11,86.9l19.2-38.1L1426.2-22.6z"/>
<path class="st0" d="M1360.2,70c-0.2,0-0.4-0.1-0.6-0.2l-11.4-8.7c-0.4-0.3-0.5-0.9-0.3-1.3c0.3-0.4,0.9-0.5,1.3-0.3
	c0,0,0.1,0,0.1,0.1l10.4,7.9l11.3-27c0.1-0.3,0.4-0.5,0.8-0.6c0.3,0,0.7,0.1,0.9,0.4l13.4,21.8l21.5-24c0.2-0.2,0.4-0.3,0.7-0.3
	c0.3,0,0.5,0.1,0.7,0.3l28.2,27.6c0.4,0.4,0.4,1,0,1.3c-0.4,0.4-0.9,0.4-1.3,0l-27.5-26.9l-21.7,24.3c-0.2,0.2-0.5,0.3-0.8,0.3
	c-0.3,0-0.5-0.2-0.7-0.4l-13.1-21.3l-11.1,26.4c-0.1,0.3-0.3,0.5-0.6,0.5L1360.2,70z"/>
<path class="st0" d="M1415.9,31.6c-0.5,0-0.9-0.4-0.9-0.9l-2.1-41.6l-15.6-8.4c-0.2-0.1-0.4-0.3-0.4-0.6c-0.1-0.2,0-0.5,0.1-0.7
	l8.9-15.3c0.2-0.4,0.8-0.6,1.2-0.4l18.1,8.7c0.5,0.2,0.7,0.8,0.4,1.2c-0.2,0.5-0.8,0.7-1.2,0.4c0,0,0,0,0,0l-17.3-8.3l-8,13.7
	l15.2,8.2c0.3,0.2,0.5,0.4,0.5,0.8l2.2,42.1C1416.9,31.2,1416.5,31.6,1415.9,31.6C1416,31.6,1416,31.6,1415.9,31.6L1415.9,31.6z"/>
<path class="st0" d="M1366.5,133.6c-0.5,0-0.9-0.4-0.9-0.9c0-0.1,0-0.3,0.1-0.4l10.5-22.3c0.1-0.3,0.4-0.5,0.7-0.5l21.3-2.8
	l-12.9-41.5l-24.5,5.2c-0.5,0.1-1-0.2-1.1-0.7s0.2-1,0.7-1.1c0,0,0,0,0.1,0l25.3-5.4c0.5-0.1,0.9,0.2,1.1,0.6l13.5,43.4
	c0.1,0.3,0,0.5-0.1,0.8c-0.2,0.2-0.4,0.4-0.7,0.4l-21.8,2.8l-10.3,21.8C1367.2,133.4,1366.9,133.6,1366.5,133.6z"/>
<path class="st0" d="M1444,144.9c-0.1,0-0.3,0-0.4-0.1l-66.9-33.6c-0.2-0.1-0.4-0.3-0.4-0.5l-14.1-35l5.3,56.8c0,0.5-0.3,1-0.8,1
	c-0.3,0-0.6-0.1-0.8-0.3l-19-22.7c-0.3-0.4-0.3-1,0.1-1.3c0.4-0.3,1-0.3,1.3,0.1c0,0,0,0,0,0l17.1,20.4l-5.6-60.2
	c-0.1-0.5,0.2-0.9,0.7-1c0.4-0.1,0.9,0.1,1.1,0.6l16.3,40.6l66.6,33.4c0.5,0.2,0.6,0.8,0.4,1.2
	C1444.7,144.7,1444.3,144.9,1444,144.9L1444,144.9z"/>
<path class="st0" d="M1399.4,108.4c-0.5,0-0.9-0.4-0.9-0.9c0-0.5,0.3-0.8,0.8-0.9l17.3-2.4l19.2-37.2c0.2-0.3,0.5-0.5,0.8-0.5l0,0
	l46,0.1l-8.4-39.5h-16.8c-0.5,0-0.9-0.4-0.9-0.9s0.4-0.9,0.9-0.9h17.5c0.4,0,0.8,0.3,0.9,0.7l8.8,41.4c0.1,0.3,0,0.6-0.2,0.8
	c-0.2,0.2-0.4,0.3-0.7,0.3l-46.5-0.1l-19.2,37.1c-0.1,0.3-0.4,0.4-0.7,0.5l-17.8,2.5L1399.4,108.4z"/>
<path class="st0" d="M1284.3,14.7c-0.2,0-0.4-0.1-0.6-0.2l-13.5-11.1c-0.2-0.2-0.4-0.5-0.3-0.8l5.1-49.1c0.1-0.5,0.5-0.9,1-0.8
	c0.5,0.1,0.9,0.5,0.8,1l-5,48.6l13.1,10.8c0.4,0.3,0.4,0.9,0.1,1.3c0,0,0,0,0,0C1284.8,14.6,1284.6,14.7,1284.3,14.7z"/>
<path class="st0" d="M1264.4,12.2L1264.4,12.2l-15.3-1.6c-0.4-0.1-0.8-0.4-0.8-0.8c-0.1-0.4,0.2-0.9,0.6-1l21.5-7
	c0.4-0.1,0.8,0,1,0.3c0.2,0.3,0.2,0.8,0,1.1l-6.3,8.7C1265,12.1,1264.7,12.2,1264.4,12.2z M1253.7,9.2l10.3,1.1l4.3-5.9L1253.7,9.2z
	"/>
<path class="st0" d="M1259,42.8L1259,42.8l-15.2-0.4c-0.3,0-0.5-0.1-0.7-0.3c-0.2-0.2-0.2-0.5-0.2-0.7l5.5-31.8l1.4-21.6
	c0-0.3,0.2-0.6,0.5-0.8c0.3-0.1,0.7-0.1,0.9,0.1l20.1,14.7c0.4,0.3,0.5,0.9,0.2,1.3c-0.3,0.4-0.9,0.5-1.3,0.2c0,0,0,0,0,0
	l-18.7-13.7l-1.3,20c0,0,0,0.1,0,0.1l-5.3,30.7l13.3,0.4l5.3-29.8c0.1-0.5,0.6-0.9,1.1-0.8c0.5,0.1,0.9,0.6,0.8,1.1c0,0,0,0,0,0
	l-5.5,30.5C1259.8,42.4,1259.4,42.8,1259,42.8z"/>
<path class="st0" d="M1483.7,68.5c-0.3,0-0.6-0.2-0.8-0.4l-26.1-41c-0.2-0.3-0.2-0.7,0-1l18.3-25.2c0.2-0.3,0.7-0.5,1.1-0.3
	c0.4,0.1,0.6,0.5,0.6,0.9l-0.9,23l44.4-28.4c0.3-0.2,0.6-0.2,0.9,0c0.3,0.2,0.5,0.5,0.5,0.8l1.4,46.7c0,0.5-0.4,0.9-0.9,1
	c-0.5,0-0.9-0.4-1-0.9l-1.3-45L1475.4,27c-0.3,0.2-0.7,0.2-1,0c-0.3-0.2-0.5-0.5-0.5-0.8l0.9-21.7l-16.1,22.2l25.8,40.5
	c0.3,0.4,0.1,1-0.3,1.3C1484,68.4,1483.9,68.5,1483.7,68.5z"/>
<path class="st0" d="M1297.3,95.6c-0.1,0-0.3,0-0.4-0.1l-68.3-34.9c-0.3-0.1-0.4-0.4-0.5-0.6c-0.1-0.3,0-0.6,0.2-0.8l14.8-18.4
	c0.3-0.4,0.9-0.5,1.3-0.1s0.5,0.9,0.1,1.3l-14,17.5l63.8,32.6l-36.1-49.7c-0.3-0.4-0.2-1,0.2-1.3c0.1,0,0.1-0.1,0.2-0.1l24.2-11
	c0.5-0.2,1,0,1.2,0.4c0,0,0,0,0,0c0.2,0.5,0,1-0.5,1.2l-23.2,10.6l37.7,51.9c0.3,0.3,0.3,0.8,0,1.2
	C1297.9,95.6,1297.6,95.7,1297.3,95.6z"/>
<path class="st0" d="M1585.1,113.8c-0.3,0-0.6-0.1-0.8-0.4l-20.4-29.1c-0.3-0.4-0.2-0.9,0.1-1.2c0.2-0.2,0.4-0.3,0.7-0.3
	c0.4,0,0.8,0,22.6,13.9c0.3,0.2,0.5,0.5,0.4,0.9L1586,113c0,0.4-0.3,0.7-0.7,0.8C1585.2,113.8,1585.1,113.8,1585.1,113.8z
	 M1567.8,86.7l16.6,23.7l1.4-12.4C1580,94.3,1572.3,89.4,1567.8,86.7L1567.8,86.7z"/>
<path class="st0" d="M1560,118.3c-0.2,0-0.5-0.1-0.6-0.2c-0.2-0.2-0.3-0.5-0.3-0.8c0-0.1,1-8.5,2-16.8c2.1-17.7,2.1-17.7,3.2-17.7
	c0.7,0,1,0,11.5,15c5,7.2,10,14.6,10,14.6c0.3,0.4,0.2,1-0.2,1.3c-0.1,0.1-0.2,0.1-0.4,0.1l-25,4.4L1560,118.3z M1564.8,85.6
	c-0.8,4.9-2.5,19.8-3.8,30.6l22.4-4C1577.2,103,1568,89.8,1564.8,85.6L1564.8,85.6z"/>
<path class="st0" d="M1560,118.3c-0.3,0-0.6-0.1-0.8-0.4l-8.5-12.3c-0.2-0.3-0.2-0.7,0-1l12.3-21c0.2-0.3,0.5-0.5,0.9-0.5
	c0.4,0,0.7,0.3,0.8,0.6c0.1,0.3,0.2,0.6-3.7,33.7c0,0.4-0.3,0.7-0.7,0.8C1560.2,118.3,1560.1,118.3,1560,118.3z M1552.6,105l6.8,9.8
	c1.1-9.1,2.4-20.6,3.1-26.6L1552.6,105z"/>
<path class="st0" d="M1603.8,174.6h-0.2c-0.3-0.1-0.6-0.3-0.7-0.6l-18.8-60.7c-0.2-0.5,0-1,0.5-1.2s1,0,1.2,0.5c0,0,0,0.1,0,0.1
	l18.3,59.1l5.9-6.8l-24.2-67.1c-0.2-0.5,0.1-1,0.6-1.2c0.5-0.2,1,0.1,1.2,0.6l24.4,67.6c0.1,0.3,0,0.7-0.2,0.9l-7.4,8.5
	C1604.3,174.4,1604.1,174.5,1603.8,174.6z"/>
<path class="st0" d="M1566.6,175.9c-0.2,0-0.3,0-0.4-0.1l-18.6-9.8c-0.3-0.2-0.5-0.5-0.5-0.9l3.4-60.1c0-0.5,0.5-0.9,1-0.9
	c0,0,0,0,0,0c0.5,0,0.9,0.5,0.9,1c0,0,0,0,0,0l-3.4,59.5l16.4,8.7l-6.4-55.8c-0.1-0.5,0.3-1,0.8-1s1,0.3,1,0.8l0,0l6.7,57.6
	c0,0.3-0.1,0.7-0.4,0.9C1567,175.8,1566.8,175.9,1566.6,175.9z"/>
<path class="st0" d="M1548.1,166.1c-0.1,0-0.3,0-0.4-0.1l-24.7-12.1c-0.3-0.1-0.5-0.5-0.5-0.8c0-0.3,0.2-0.7,0.5-0.8l18.3-10
	c0.3-0.2,0.6-0.2,0.9,0l6.8,4.3c0.4,0.3,0.6,0.9,0.3,1.3c-0.3,0.4-0.9,0.6-1.3,0.3l-6.4-4l-16.2,8.9l23,11.4
	c0.5,0.2,0.6,0.8,0.4,1.2C1548.7,165.9,1548.4,166.1,1548.1,166.1L1548.1,166.1z"/>
<path class="st0" d="M1541.7,143.9c-0.4,0-0.8-0.3-0.9-0.8l-14.5-72.5c0-0.4,0.2-0.8,0.5-1l11.6-5.2c0.3-0.1,0.5-0.1,0.8,0
	c0.3,0.1,0.4,0.4,0.5,0.6l11.7,54.8c0.1,0.5-0.2,1-0.7,1.1c-0.5,0.1-1-0.2-1.1-0.7l-11.5-53.7l-9.8,4.5l14.3,71.7
	c0.1,0.5-0.2,1-0.7,1.1c0,0,0,0,0,0L1541.7,143.9z"/>
<path class="st0" d="M1523.4,154c-0.5,0-0.9-0.3-0.9-0.8L1511,67.8c0-0.3,0.1-0.6,0.3-0.8c0.2-0.2,0.5-0.3,0.8-0.2l15.3,2.9
	c0.5,0,0.9,0.5,0.8,1s-0.5,0.9-1,0.8c-0.1,0-0.1,0-0.2,0l-14.1-2.6l11.3,84.1c0,0.5-0.3,0.9-0.8,1L1523.4,154z"/>
<path class="st0" d="M1484.8,69.4c-0.5,0-0.9-0.4-0.9-0.9s0.4-0.9,0.9-0.9l26.5-0.7l10.5-22.1c0.1-0.3,0.4-0.5,0.7-0.5
	c0.3,0,0.6,0.1,0.8,0.3l16.1,20.3c0.3,0.4,0.2,1-0.2,1.3c-0.4,0.3-0.9,0.2-1.3-0.1l-15.2-19.1l-10.2,21.3c-0.1,0.3-0.5,0.5-0.8,0.5
	L1484.8,69.4L1484.8,69.4z"/>
<path class="st0" d="M1527,71.2c-0.5,0-0.8-0.3-0.9-0.8l-4.3-25.3c0-0.2,0-0.4,0.1-0.6l25.9-54c0.2-0.3,0.5-0.5,0.9-0.5
	c0.4,0,0.7,0.3,0.8,0.6l13.6,38.2c0.2,0.5-0.1,1-0.6,1.2c0,0,0,0,0,0c-0.5,0.2-1-0.1-1.2-0.6l-12.8-36l-24.8,51.7l4.3,25
	c0.1,0.5-0.2,1-0.8,1.1L1527,71.2z"/>
<path class="st0" d="M1513.7,190.9c-0.2,0-0.4-0.1-0.5-0.2l-35.6-24.8c-0.3-0.2-0.4-0.5-0.4-0.8l2.7-47.3c0-0.3,0.2-0.6,0.4-0.7
	c0.2-0.2,0.5-0.2,0.8-0.1l18,6.1l4.8-9.3c0.2-0.5,0.8-0.7,1.2-0.4c0.2,0.1,0.3,0.2,0.4,0.4l23.8,50.7c0.2,0.3,0.2,0.7,0,1
	l-14.9,24.8c-0.1,0.2-0.4,0.4-0.6,0.4L1513.7,190.9z M1479,164.7l34.4,24l14.1-23.5l-22.9-48.8l-4.3,8.3c-0.2,0.4-0.7,0.6-1.1,0.4
	l-17.6-6L1479,164.7z"/>
<path class="st0" d="M1513.7,190.9c-0.4,0-0.8-0.3-0.9-0.7l-14.1-65.7c-0.2-0.5,0.1-1,0.6-1.2c0.5-0.2,1,0.1,1.2,0.6
	c0,0.1,0,0.1,0,0.2l14.1,65.7c0.1,0.5-0.2,1-0.7,1.1L1513.7,190.9z"/>
<path class="st0" d="M1480.8,118.8c-0.2,0-0.4-0.1-0.6-0.2c-0.4-0.3-0.5-0.9-0.1-1.3l10.4-12.8c0.3-0.4,0.8-0.4,1.2-0.2l13.5,9.2
	c0.5,0.2,0.7,0.8,0.5,1.2c-0.2,0.5-0.8,0.7-1.2,0.5c-0.1,0-0.2-0.1-0.2-0.2l-12.8-8.7l-9.9,12.1
	C1481.3,118.7,1481.1,118.9,1480.8,118.8z"/>
<path class="st0" d="M1499.4,125.1c-0.4,0-0.7-0.2-0.8-0.6l-8.2-19c-0.2-0.5-0.1-1,0.4-1.3s1-0.1,1.3,0.4c0,0,0,0.1,0.1,0.1l8.2,19
	c0.2,0.5,0,1-0.5,1.2c0,0,0,0,0,0C1499.7,125,1499.5,125.1,1499.4,125.1z"/>
<path class="st0" d="M1543.8,195.7h-0.2c-0.3-0.1-0.5-0.2-0.7-0.5l-15.1-29.4c-0.2-0.4-0.1-1,0.4-1.2c0,0,0,0,0,0
	c0.5-0.2,1-0.1,1.2,0.4l14.5,28.4l22-19c0.4-0.3,1-0.2,1.3,0.2c0.3,0.4,0.3,0.9-0.1,1.2l-22.9,19.8
	C1544.2,195.6,1544,195.7,1543.8,195.7z"/>
<path class="st0" d="M1631.8,202.7L1631.8,202.7l-50.7-3.6c-0.5,0-0.9-0.4-0.9-0.9c0-0.5,0.4-0.9,0.9-0.9c0,0,0.1,0,0.1,0l49.5,3.5
	l-6.2-50.6l-12.5,15.4c-0.3,0.4-0.9,0.5-1.3,0.1c-0.4-0.3-0.5-0.9-0.1-1.3c0,0,0,0,0,0l13.9-17.1c0.2-0.3,0.6-0.4,1-0.3
	c0.4,0.1,0.6,0.4,0.7,0.8l6.6,53.8c0,0.3,0,0.6-0.2,0.8C1632.3,202.6,1632.1,202.7,1631.8,202.7z"/>
<path class="st0" d="M1517.2,263.4c-0.2,0-0.3,0-0.5-0.1c-0.3-0.2-0.5-0.5-0.4-0.9l11-96.2c0.1-0.5,0.5-0.9,1-0.8
	c0.5,0.1,0.9,0.5,0.8,1l0,0l-10.8,94.1l23.3-16.7l1.2-49.1c0-0.5,0.4-0.9,0.9-0.9c0,0,0.1,0,0.1,0c0.5,0,0.9,0.4,0.9,0.9
	c0,0,0,0,0,0.1l-1.2,49.6c0,0.3-0.2,0.6-0.4,0.7l-25.4,18.2C1517.6,263.4,1517.4,263.4,1517.2,263.4z"/>
<path class="st0" d="M1517.2,263.4c-0.3,0-0.6-0.1-0.7-0.4l-25-33.4c-0.2-0.3-0.2-0.7-0.1-1l21.5-39.1c0.2-0.5,0.8-0.7,1.2-0.4
	s0.7,0.8,0.4,1.2c0,0,0,0.1,0,0.1l-21.1,38.6l24.6,33c0.3,0.4,0.2,1-0.2,1.3C1517.5,263.4,1517.3,263.4,1517.2,263.4z"/>
<path class="st0" d="M1631.8,202.7h-0.2c-0.4-0.1-0.7-0.4-0.8-0.8l-11.9-94.1c-0.1-0.5,0.3-1,0.8-1c0.4,0,0.7,0.1,0.9,0.4l32.7,52.8
	c0.1,0.3,0.1,0.6,0,0.9l-20.9,41.3C1632.4,202.5,1632.1,202.7,1631.8,202.7z M1621.4,111.8l11,86.9l19.3-38.1L1621.4,111.8z"/>
<path class="st0" d="M1555.2,204.4c-0.2,0-0.4-0.1-0.6-0.2l-11.4-8.7c-0.4-0.3-0.5-0.9-0.3-1.3c0.3-0.4,0.9-0.5,1.3-0.3
	c0,0,0.1,0,0.1,0.1l10.5,7.9l11.4-27c0.2-0.5,0.8-0.7,1.2-0.5c0.2,0.1,0.3,0.2,0.4,0.4l13.4,21.8l21.6-24c0.2-0.2,0.4-0.3,0.7-0.3
	c0.3,0,0.5,0.1,0.7,0.3l28.3,27.6c0.4,0.4,0.4,0.9,0,1.3c-0.4,0.4-0.9,0.4-1.3,0c0,0,0,0,0,0l-27.6-26.9l-21.7,24.2
	c-0.2,0.2-0.5,0.3-0.8,0.3c-0.3,0-0.6-0.2-0.7-0.4l-13.1-21.3l-11.1,26.4c-0.1,0.3-0.3,0.5-0.6,0.5
	C1555.4,204.4,1555.3,204.4,1555.2,204.4z"/>
<path class="st0" d="M1611.1,166c-0.5,0-0.9-0.4-0.9-0.9l-2.1-41.6l-15.6-8.4c-0.2-0.1-0.4-0.3-0.4-0.6c-0.1-0.2,0-0.5,0.1-0.7
	l8.9-15.3c0.2-0.4,0.8-0.6,1.2-0.4l18.2,8.7c0.5,0.2,0.7,0.8,0.4,1.2c-0.2,0.5-0.8,0.7-1.2,0.4l-17.4-8.3l-8,13.7l15.2,8.2
	c0.3,0.2,0.5,0.4,0.5,0.8l2.2,42.1C1612,165.5,1611.7,166,1611.1,166C1611.1,166,1611.1,166,1611.1,166L1611.1,166z"/>
<path class="st0" d="M1608.9,123.9h-0.2c-0.3-0.1-0.6-0.3-0.7-0.7l-7.1-23.7l-28-27.4l-8.3,12.5c-0.2,0.5-0.8,0.7-1.2,0.5
	c-0.5-0.2-0.7-0.8-0.5-1.2c0-0.1,0.1-0.2,0.2-0.2l9-13.5c0.3-0.4,0.9-0.5,1.3-0.3c0,0,0.1,0.1,0.1,0.1l29,28.4
	c0.1,0.1,0.2,0.2,0.2,0.4l6.7,22.1l9.9-13.8c0.3-0.4,0.9-0.5,1.3-0.2c0.4,0.3,0.5,0.9,0.2,1.3l-11,15.3
	C1609.5,123.7,1609.2,123.9,1608.9,123.9z"/>
<path class="st0" d="M1561.6,268c-0.1,0-0.3,0-0.4-0.1c-0.5-0.2-0.7-0.8-0.4-1.2c0,0,0,0,0,0l10.6-22.3c0.1-0.3,0.4-0.5,0.7-0.5
	l21.3-2.8l-13-41.5l-24.5,5.2c-0.5,0.1-1-0.2-1.1-0.7c-0.1-0.5,0.2-1,0.7-1.1l25.4-5.4c0.5-0.1,0.9,0.2,1.1,0.6l13.5,43.3
	c0.2,0.5-0.1,1-0.6,1.2c-0.1,0-0.1,0-0.2,0l-21.9,2.8l-10.3,21.8C1562.2,267.8,1561.9,268,1561.6,268z"/>
<path class="st0" d="M1561.6,268c-0.3,0-0.5-0.1-0.7-0.3l-19-22.7c-0.4-0.4-0.4-1,0-1.3c0.4-0.4,1-0.4,1.3,0c0,0,0.1,0.1,0.1,0.1
	l17.1,20.4l-5.7-60.2c-0.1-0.5,0.3-1,0.8-1c0.4,0,0.8,0.2,1,0.6l16.5,40.8c0.2,0.5,0,1-0.5,1.2c-0.5,0.2-1,0-1.2-0.5l-14.1-35
	l5.3,56.8c0,0.4-0.2,0.8-0.6,0.9C1561.8,267.9,1561.7,268,1561.6,268z"/>
<path class="st0" d="M1594.5,242.8c-0.5,0-0.9-0.4-1-0.9c0-0.5,0.4-0.9,0.9-1l17.3-2.4l19.3-37.2c0.2-0.3,0.5-0.5,0.8-0.5l0,0
	l46.1,0.1l-8.4-39.5h-16.8c-0.5,0-0.9-0.4-0.9-0.9c0-0.5,0.4-0.9,0.9-0.9h17.5c0.4,0,0.8,0.3,0.9,0.7l8.8,41.4
	c0.1,0.3,0,0.6-0.2,0.8c-0.2,0.2-0.4,0.3-0.7,0.4l0,0l-46.7-0.1l-19.2,37.1c-0.1,0.3-0.4,0.4-0.7,0.5l-17.8,2.5H1594.5z"/>
<path class="st0" d="M1482.2,100.3c-0.2,0-0.5-0.1-0.7-0.3L1470,88.5c-0.3-0.3-0.4-0.8-0.1-1.2l14.2-20.2c0.2-0.2,0.4-0.4,0.7-0.4
	c0.3,0,0.5,0.1,0.7,0.2l31.1,28.5c0.3,0.3,0.4,0.6,0.3,1c-0.1,0.3-0.4,0.6-0.8,0.6L1482.2,100.3L1482.2,100.3z M1471.8,87.7
	l10.7,10.7l31.2-3.1L1485,69L1471.8,87.7z"/>
<path class="st0" d="M1480.8,118.8L1480.8,118.8c-0.6,0-1-0.5-0.9-1c0,0,0,0,0,0l1.4-18.5l2.6-31c0-0.5,0.5-0.9,1-0.8
	c0.5,0,0.9,0.5,0.8,1l-2.6,31l-1.4,18.5C1481.6,118.5,1481.2,118.8,1480.8,118.8z"/>
<path class="st0" d="M1479.1,149.1c-0.2,0-0.4-0.1-0.6-0.2l-13.5-11.1l-48.4-31.9c-0.3-0.2-0.5-0.5-0.4-0.9c0-0.4,0.3-0.6,0.6-0.8
	l53.5-17.2c0.3-0.1,0.6,0,0.9,0.2c0.2,0.2,0.4,0.5,0.3,0.8l-5,48.6l13.1,10.8c0.4,0.3,0.5,0.9,0.1,1.3
	C1479.7,149,1479.4,149.1,1479.1,149.1L1479.1,149.1z M1419.3,105.3l45.5,30l4.8-46.2L1419.3,105.3z"/>
<path class="st0" d="M1492.2,230c-0.3,0-0.6-0.1-0.8-0.4l-38.5-52.9c-0.3-0.4-0.2-1,0.2-1.3c0,0,0.1-0.1,0.1-0.1l24.3-11
	c0.5-0.2,1,0,1.2,0.5c0.2,0.4,0,0.9-0.4,1.2l-23.2,10.6l37.8,51.9c0.3,0.4,0.2,1-0.2,1.3C1492.6,229.9,1492.4,230,1492.2,230z"/>
<path class="st0" d="M1459.2,146.6L1459.2,146.6l-15.3-1.7c-0.5-0.1-0.9-0.5-0.8-1c0-0.3,0.3-0.6,0.6-0.8l21.6-7
	c0.4-0.1,0.8,0,1,0.3c0.2,0.3,0.2,0.8,0,1.1l-6.3,8.7C1459.8,146.4,1459.5,146.6,1459.2,146.6z M1448.4,143.6l10.4,1.1l4.3-5.9
	L1448.4,143.6z"/>
<path class="st0" d="M1453.7,177.1L1453.7,177.1l-15.2-0.4c-0.3,0-0.5-0.1-0.7-0.3c-0.2-0.2-0.2-0.5-0.2-0.7l5.5-31.8
	c0.1-0.5,0.6-0.8,1.1-0.8c0,0,0,0,0,0c0.5,0.1,0.8,0.6,0.8,1.1l-5.3,30.7l13.3,0.4l5.4-29.8c0.1-0.5,0.6-0.8,1.1-0.7
	c0.5,0.1,0.8,0.6,0.7,1.1l-5.5,30.6C1454.6,176.8,1454.2,177.1,1453.7,177.1z"/>
<path class="st0" d="M1753.7,205.6c-0.2,0-0.3-0.1-0.5-0.1l-36.2-21.9l-37.6,19.2c-0.4,0.2-0.9,0.1-1.2-0.3l-26.1-41
	c-0.2-0.3-0.2-0.7,0-1l18.3-25.2c0.2-0.3,0.6-0.4,1-0.3c0.4,0.1,0.6,0.5,0.6,0.9l-1,24.8c0,0.5-0.5,0.9-1,0.9c-0.5,0-0.9-0.5-0.9-1
	l0.9-21.7l-16,22.2l25.4,39.7l37.3-19.1c0.3-0.2,0.6-0.2,0.9,0l36.7,22.2c0.4,0.3,0.6,0.8,0.3,1.3
	C1754.4,205.4,1754.1,205.6,1753.7,205.6L1753.7,205.6z"/>
<path class="st0" d="M1240.4,102.7c-0.3,0-0.6-0.2-0.8-0.4l-19.9-29.1c-0.2-0.4-0.2-0.9,0.1-1.2c0.2-0.2,0.4-0.3,0.7-0.3
	c0.3,0,0.8,0,22.1,13.9c0.3,0.2,0.4,0.5,0.4,0.9l-1.7,15.4c0,0.4-0.3,0.7-0.7,0.8C1240.6,102.7,1240.5,102.7,1240.4,102.7z
	 M1223.7,75.6l16.1,23.6l1.4-12.3C1235.5,83.2,1228,78.3,1223.7,75.6z"/>
<path class="st0" d="M1216,107.1c-0.2,0-0.5-0.1-0.6-0.2c-0.2-0.2-0.3-0.5-0.3-0.8c0-0.1,1-8.5,1.9-16.8c2.1-17.7,2.1-17.7,3.2-17.7
	c0.7,0,1,0,11.2,15c4.9,7.2,9.8,14.6,9.8,14.6c0.2,0.3,0.2,0.6,0.1,0.9c-0.1,0.3-0.4,0.5-0.7,0.6l-24.4,4.4L1216,107.1z
	 M1220.7,74.5c-0.7,5-2.4,19.7-3.7,30.5l21.8-4C1232.8,91.9,1223.8,78.7,1220.7,74.5L1220.7,74.5z"/>
<path class="st0" d="M1216,107.1c-0.3,0-0.6-0.1-0.8-0.4l-8.3-12.3c-0.2-0.3-0.2-0.7,0-1l12-21c0.2-0.3,0.5-0.5,0.9-0.5
	c0.4,0,0.7,0.3,0.8,0.6c0.1,0.3,0.2,0.5-3.6,33.7c0,0.4-0.3,0.7-0.7,0.8C1216.2,107.1,1216.1,107.1,1216,107.1z M1208.8,93.9
	l6.6,9.7c1-9.1,2.3-20.4,3-26.5L1208.8,93.9z"/>
<path class="st0" d="M1258.7,163.4h-0.2c-0.3-0.1-0.6-0.3-0.7-0.6l-18.3-60.8c-0.1-0.5,0.1-1,0.6-1.2c0,0,0,0,0,0
	c0.5-0.1,1,0.1,1.1,0.6c0,0,0,0,0,0l17.8,59.1l5.7-6.8l-23.6-67.1c-0.2-0.5,0.1-1,0.6-1.2c0.5-0.2,1,0.1,1.2,0.6l23.8,67.6
	c0.1,0.3,0,0.7-0.2,0.9l-7.2,8.4C1259.3,163.3,1259,163.4,1258.7,163.4z"/>
<path class="st0" d="M1222.4,164.7c-0.2,0-0.3,0-0.4-0.1l-18.1-9.8c-0.3-0.2-0.5-0.5-0.5-0.9l3.3-60.1c0-0.5,0.5-0.9,1-0.9
	c0.5,0,0.9,0.5,0.9,1c0,0,0,0,0,0l-3.3,59.5l16,8.7l-6.3-55.9c-0.1-0.5,0.2-1,0.7-1.1c0.5-0.1,1,0.2,1.1,0.7c0,0.1,0,0.1,0,0.2
	l6.6,57.6c0,0.5-0.3,1-0.9,1C1222.5,164.7,1222.5,164.7,1222.4,164.7L1222.4,164.7z"/>
<path class="st0" d="M1204.3,154.9c-0.1,0-0.3,0-0.4-0.1l-24-12.1c-0.3-0.1-0.5-0.5-0.5-0.8c0-0.3,0.2-0.7,0.5-0.8l17.9-10
	c0.3-0.2,0.7-0.2,1,0l6.7,4.3c0.4,0.3,0.5,0.9,0.2,1.3c-0.3,0.4-0.8,0.5-1.2,0.3l-6.2-4l-15.8,8.9l22.5,11.4
	c0.5,0.2,0.7,0.8,0.4,1.2C1205.1,154.7,1204.8,154.9,1204.3,154.9L1204.3,154.9z"/>
<path class="st0" d="M1198.2,132.8c-0.4,0-0.8-0.3-0.9-0.8l-14.1-72.5c-0.1-0.4,0.1-0.8,0.5-1l11.3-5.2c0.3-0.1,0.6-0.1,0.8,0
	c0.3,0.1,0.4,0.4,0.5,0.6l11.4,54.8c0.1,0.5-0.2,1-0.8,1.1c-0.5,0.1-1-0.2-1.1-0.7l-11.2-53.7l-9.6,4.5l14,71.7
	c0.1,0.5-0.2,1-0.7,1.1c0,0,0,0,0,0C1198.3,132.8,1198.2,132.8,1198.2,132.8z"/>
<path class="st0" d="M1180.3,142.8c-0.5,0-0.9-0.3-0.9-0.8l-11.2-85.3c0-0.5,0.3-1,0.8-1c0.1,0,0.2,0,0.2,0l15,2.9
	c0.5,0.1,0.8,0.6,0.7,1.1c0,0,0,0,0,0c-0.1,0.5-0.6,0.8-1.1,0.7c0,0,0,0,0,0l-13.7-2.6l11.1,84c0,0.5-0.3,0.9-0.8,1L1180.3,142.8z"
	/>
<path class="st0" d="M1142.6,58.2c-0.5-0.1-0.9-0.5-0.8-1c0-0.4,0.4-0.8,0.8-0.8l25.9-0.7l10.3-22.1c0.1-0.3,0.4-0.5,0.7-0.5
	c0.3,0,0.6,0.1,0.8,0.3l15.6,20.3c0.3,0.4,0.2,1-0.2,1.3c-0.4,0.3-1,0.2-1.3-0.2l-14.8-19.1l-9.9,21.3c-0.1,0.3-0.5,0.5-0.8,0.5
	L1142.6,58.2L1142.6,58.2z"/>
<path class="st0" d="M1183.8,60.1c-0.5,0-0.8-0.3-0.9-0.8l-4.1-24.2c-0.2-0.2-0.3-0.5-0.3-0.8c0-0.1,0-0.2,0.1-0.3
	c0-0.2,0-0.4,0.2-0.6l28.4-40.8c0.2-0.2,0.4-0.4,0.7-0.4c0.3,0,0.6,0.1,0.8,0.4l35.9,47.9c0.3,0.4,0.2,1-0.2,1.3
	c-0.2,0.1-0.4,0.2-0.6,0.2l-63-6.5l4,23.5c0.1,0.5-0.3,1-0.8,1.1c0,0,0,0,0,0L1183.8,60.1z M1180.9,33.6l61,6.2L1208-5.3
	L1180.9,33.6z"/>
<path class="st0" d="M1170.8,179.8c-0.2,0-0.4-0.1-0.5-0.2l-34.8-24.8c-0.3-0.2-0.4-0.5-0.4-0.8l2.7-47.2c0-0.3,0.2-0.6,0.4-0.7
	c0.2-0.2,0.5-0.2,0.8-0.1l17.6,6.1l4.6-9.3c0.2-0.5,0.8-0.7,1.2-0.4c0.2,0.1,0.3,0.2,0.4,0.4l23.2,50.8c0.2,0.3,0.2,0.7,0,1
	l-14.5,24.8c-0.1,0.2-0.4,0.4-0.6,0.4L1170.8,179.8z M1137,153.6l33.5,23.9l13.8-23.5l-22.3-48.7l-4.1,8.3c-0.2,0.4-0.7,0.6-1.1,0.5
	l-17.2-6L1137,153.6z"/>
<path class="st0" d="M1170.8,179.8c-0.4,0-0.8-0.3-0.9-0.7l-13.8-65.7c-0.1-0.5,0.2-1,0.7-1.1c0.5-0.1,1,0.2,1.1,0.7c0,0,0,0,0,0
	l13.8,65.7c0.1,0.5-0.2,1-0.7,1.1c0,0,0,0,0,0L1170.8,179.8z"/>
<path class="st0" d="M1138.7,107.7c-0.2,0-0.4-0.1-0.6-0.2c-0.4-0.3-0.5-0.9-0.2-1.3l10.2-12.8c0.3-0.4,0.9-0.5,1.3-0.2l13.1,9.2
	c0.4,0.3,0.5,0.9,0.2,1.3s-0.9,0.5-1.3,0.2l-12.4-8.7l-9.6,12.1C1139.2,107.6,1139,107.7,1138.7,107.7z"/>
<path class="st0" d="M1156.9,113.9c-0.4,0-0.7-0.2-0.9-0.6l-8-19c-0.2-0.5,0-1,0.5-1.2s1,0,1.2,0.5l8,19c0.2,0.5,0,1-0.5,1.2
	C1157.1,113.9,1157,113.9,1156.9,113.9L1156.9,113.9z"/>
<path class="st0" d="M1200.1,184.6h-0.2c-0.3-0.1-0.5-0.2-0.7-0.5l-14.7-29.4c-0.2-0.5,0-1,0.4-1.3c0.5-0.2,1,0,1.2,0.4l14.2,28.3
	l21.4-19c0.4-0.4,0.9-0.4,1.3,0c0.4,0.4,0.4,0.9,0,1.3c0,0-0.1,0.1-0.1,0.1l-22.3,19.8C1200.6,184.5,1200.4,184.6,1200.1,184.6z"/>
<path class="st0" d="M1286,191.6L1286,191.6l-49.5-3.6c-0.5,0-0.9-0.5-0.9-1c0-0.5,0.5-0.9,1-0.9l48.3,3.5l-6-50.5l-12.2,15.4
	c-0.3,0.4-0.9,0.5-1.3,0.1c-0.4-0.3-0.5-0.9-0.2-1.3l0,0l13.6-17.1c0.2-0.3,0.6-0.4,1-0.3c0.4,0.1,0.6,0.4,0.7,0.8l6.4,53.8
	c0,0.3-0.1,0.5-0.2,0.8C1286.6,191.5,1286.3,191.6,1286,191.6z"/>
<path class="st0" d="M1174.2,252.3c-0.2,0-0.3,0-0.5-0.1c-0.3-0.2-0.5-0.5-0.5-0.9L1184,155c0-0.5,0.4-0.9,0.9-0.9
	c0.5,0,0.9,0.4,0.9,0.9c0,0.1,0,0.1,0,0.2l-10.5,94.1l22.6-16.6l1.2-49.1c0-0.5,0.4-0.9,0.9-0.9l0,0c0.5,0,0.9,0.4,0.9,0.9
	c0,0,0,0,0,0.1l-1.2,49.6c0,0.3-0.1,0.6-0.4,0.7l-24.7,18.2C1174.6,252.2,1174.4,252.3,1174.2,252.3z"/>
<path class="st0" d="M1174.2,252.3c-0.3,0-0.6-0.1-0.8-0.4l-24.3-33.4c-0.2-0.3-0.2-0.7-0.1-1l21-39.1c0.2-0.5,0.7-0.7,1.2-0.5
	s0.7,0.7,0.5,1.2c0,0.1,0,0.1-0.1,0.1l-20.6,38.5l24,33c0.3,0.4,0.2,1-0.2,1.3c0,0,0,0,0,0C1174.6,252.2,1174.4,252.3,1174.2,252.3z
	"/>
<path class="st0" d="M1286,191.6h-0.2c-0.4-0.1-0.7-0.4-0.8-0.8l-11.6-94.1c0-0.4,0.2-0.8,0.6-1c0.4-0.1,0.9,0,1.1,0.4l32,52.8
	c0.2,0.3,0.2,0.6,0,0.9l-20.3,41.2C1286.7,191.3,1286.4,191.6,1286,191.6z M1275.8,100.7l10.7,86.7l18.8-38L1275.8,100.7z"/>
<path class="st0" d="M1211.3,193.2c-0.2,0-0.4-0.1-0.6-0.2l-11.1-8.7c-0.4-0.3-0.6-0.9-0.3-1.3c0.3-0.4,0.9-0.6,1.3-0.3
	c0,0,0.1,0.1,0.1,0.1l10.2,7.9l11.1-26.9c0.2-0.5,0.8-0.7,1.2-0.5c0.2,0.1,0.3,0.2,0.4,0.4l13.1,21.8l21-24c0.4-0.4,0.9-0.4,1.3,0
	c0,0,0,0,0,0l27.6,27.6c0.4,0.4,0.4,1,0,1.3c-0.4,0.4-0.9,0.4-1.3,0l-26.9-26.9l-21.2,24.2c-0.3,0.4-0.9,0.4-1.3,0.1
	c-0.1-0.1-0.1-0.1-0.2-0.2l-12.8-21.3l-10.8,26.4c-0.1,0.3-0.3,0.5-0.6,0.6C1211.5,193.2,1211.4,193.2,1211.3,193.2z"/>
<path class="st0" d="M1265.8,154.8c-0.5,0-0.9-0.4-0.9-0.9l-2.1-41.6l-15.2-8.4c-0.2-0.1-0.4-0.3-0.4-0.6c-0.1-0.2,0-0.5,0.1-0.7
	l8.7-15.3c0.2-0.4,0.8-0.6,1.2-0.4l17.7,8.7c0.5,0.2,0.7,0.8,0.4,1.2c-0.2,0.5-0.8,0.6-1.2,0.4c0,0,0,0,0,0l-17-8.3l-7.8,13.7
	l14.8,8.2c0.3,0.2,0.5,0.5,0.5,0.8l2.1,42.1C1266.7,154.3,1266.3,154.8,1265.8,154.8C1265.8,154.8,1265.8,154.8,1265.8,154.8
	L1265.8,154.8z"/>
<path class="st0" d="M1263.7,112.7h-0.2c-0.4-0.1-0.6-0.3-0.7-0.7l-7-23.7L1229,61.1l-8.6,12.4c-0.3,0.4-0.9,0.5-1.3,0.2
	c0,0,0,0,0,0c-0.4-0.3-0.5-0.9-0.2-1.3l9.3-13.3c0.2-0.2,0.4-0.4,0.7-0.4c0.3,0,0.5,0.1,0.7,0.3l27.8,28.2c0.1,0.1,0.2,0.2,0.2,0.4
	l6.5,22.1l9.6-13.7c0.2-0.2,0.4-0.4,0.7-0.4l22.7-1.8c0.5-0.1,1,0.3,1.1,0.8c0.1,0.5-0.3,1-0.8,1.1c0,0-0.1,0-0.1,0l-22.3,1.8
	l-10.4,14.9C1264.3,112.6,1264,112.7,1263.7,112.7z"/>
<path class="st0" d="M1217.5,256.8c-0.1,0-0.3,0-0.4-0.1c-0.5-0.2-0.7-0.8-0.4-1.2l10.3-22.3c0.1-0.3,0.4-0.5,0.7-0.5l20.8-2.8
	l-12.6-41.5l-23.9,5.2c-0.5,0.2-1-0.1-1.2-0.6c-0.2-0.5,0.1-1,0.6-1.2c0.1,0,0.1,0,0.2,0l24.7-5.4c0.5-0.1,0.9,0.2,1.1,0.6
	l13.2,43.4c0.1,0.3,0,0.5-0.1,0.8c-0.2,0.2-0.4,0.4-0.7,0.4l-21.3,2.8l-10.1,21.8C1218.2,256.6,1217.9,256.8,1217.5,256.8z"/>
<path class="st0" d="M1217.5,256.8c-0.3,0-0.5-0.1-0.7-0.3l-18.6-22.7c-0.3-0.4-0.2-1,0.2-1.3c0.4-0.3,0.9-0.2,1.2,0.1l16.6,20.4
	l-5.5-60.1c0-0.5,0.3-0.9,0.7-1c0.4-0.1,0.9,0.1,1.1,0.6l16.1,40.9c0.2,0.5-0.1,1-0.5,1.2c-0.5,0.2-1,0-1.2-0.5c0,0,0,0,0,0
	l-13.7-34.8l5.2,56.7c0,0.4-0.2,0.8-0.6,0.9C1217.7,256.8,1217.6,256.8,1217.5,256.8z"/>
<path class="st0" d="M1249.7,231.6c-0.5,0-0.9-0.4-0.9-0.9c0-0.5,0.3-0.8,0.8-0.9l16.9-2.4l18.8-37.2c0.2-0.3,0.5-0.5,0.8-0.5l0,0
	l44.9,0.1l-8.2-39.5h-16.4c-0.5,0-0.9-0.4-0.9-0.9c0-0.5,0.4-0.9,0.9-0.9h17.1c0.4,0,0.8,0.3,0.9,0.7l8.6,41.4
	c0.1,0.5-0.2,1-0.7,1.1c-0.1,0-0.1,0-0.2,0l0,0l-45.5-0.1l-18.7,37.1c-0.1,0.3-0.4,0.5-0.7,0.5l-17.4,2.5L1249.7,231.6z"/>
<path class="st0" d="M1140.1,89.2c-0.2,0-0.5-0.1-0.7-0.3l-11.3-11.6c-0.3-0.3-0.4-0.8-0.1-1.2l13.8-20.2c0.3-0.4,0.9-0.5,1.3-0.2
	c0,0,0.1,0.1,0.1,0.1l30.3,28.5c0.3,0.3,0.4,0.6,0.2,1c-0.1,0.3-0.4,0.6-0.8,0.6L1140.1,89.2L1140.1,89.2z M1130,76.6l10.4,10.7
	l30.4-3l-28-26.3L1130,76.6z"/>
<path class="st0" d="M1138.7,107.7L1138.7,107.7c-0.6,0-1-0.5-0.9-1l1.4-18.5l2.5-31c0-0.5,0.5-0.9,1-0.8c0.5,0,0.9,0.5,0.9,1
	c0,0,0,0,0,0l-2.5,31l-1.4,18.5C1139.6,107.3,1139.2,107.7,1138.7,107.7z"/>
<path class="st0" d="M1137.1,137.9c-0.2,0-0.4-0.1-0.6-0.2l-13.2-11.1l-47.2-31.9c-0.4-0.3-0.5-0.9-0.2-1.3c0.1-0.2,0.3-0.3,0.5-0.4
	l52.2-17.2c0.5-0.2,1,0.1,1.2,0.6c0,0.1,0.1,0.3,0,0.4l-4.9,48.7l12.8,10.8c0.4,0.3,0.4,0.9,0.1,1.3
	C1137.6,137.8,1137.3,137.9,1137.1,137.9z M1078.7,94.2l44.4,30l4.7-46.2L1078.7,94.2z"/>
<path class="st0" d="M1149.9,218.8c-0.3,0-0.6-0.1-0.8-0.4l-37.5-52.9c-0.2-0.2-0.2-0.5-0.1-0.8c0.1-0.3,0.2-0.5,0.5-0.6l23.7-11
	c0.5-0.2,1,0,1.2,0.4s0,1-0.4,1.2l0,0l-22.7,10.6l36.9,51.9c0.3,0.4,0.2,1-0.2,1.3c0,0,0,0,0,0
	C1150.2,218.8,1150,218.8,1149.9,218.8z"/>
<path class="st0" d="M1117.7,135.4h-0.1l-14.8-1.6c-0.5-0.1-0.9-0.5-0.8-1c0-0.4,0.3-0.7,0.6-0.8l21-7c0.4-0.1,0.8,0,1,0.3
	c0.2,0.3,0.2,0.8,0,1.1l-6.2,8.7C1118.2,135.3,1118,135.4,1117.7,135.4z M1107.1,132.4l10.1,1.1l4.2-5.9L1107.1,132.4z"/>
<path class="st0" d="M1112.3,166L1112.3,166l-14.8-0.4c-0.5,0-0.9-0.4-0.9-1c0,0,0-0.1,0-0.1l5.4-31.8c0.1-0.5,0.6-0.9,1.1-0.8
	c0.5,0.1,0.9,0.6,0.8,1.1l-5.2,30.7l13,0.4l5.2-29.8c0.1-0.5,0.5-0.9,1-0.8c0.5,0.1,0.9,0.5,0.8,1c0,0,0,0.1,0,0.1l-5.4,30.6
	C1113.2,165.7,1112.8,166,1112.3,166z"/>
<path class="st0" d="M1332.1,191.7c-0.5,0-0.9-0.4-0.9-0.9c0-0.2,0-0.4,0.1-0.5l34.1-56.4l-44-5.2c-0.5,0-0.9-0.4-0.9-0.9
	c0-0.5,0.4-0.9,0.9-0.9c0.1,0,0.1,0,0.2,0l45.4,5.4c0.3,0,0.6,0.2,0.7,0.5c0.1,0.3,0.1,0.6,0,0.9l-34.8,57.6
	C1332.7,191.5,1332.4,191.7,1332.1,191.7z"/>
<path class="st0" d="M1442.5,146.4h-0.2l-75.6-12.4c-0.5-0.1-0.8-0.6-0.7-1.1c0.1-0.4,0.5-0.7,1-0.7l75.6,12.4
	c0.5,0.1,0.8,0.6,0.7,1.1C1443.3,146.1,1442.9,146.4,1442.5,146.4L1442.5,146.4z"/>
<path class="st0" d="M1629,43.2c-0.3,0-0.5-0.1-0.7-0.3l-7.4-8.5c-0.2-0.3-0.3-0.6-0.2-0.9l24.3-67.1l-43.5-52.9l11.7,63.5
	c0.1,0.5-0.2,1-0.8,1.1c-0.5,0.1-1-0.2-1.1-0.8l-12.3-67c-0.1-0.4,0.1-0.8,0.5-1c0.4-0.2,0.8-0.1,1.1,0.3l46.1,56.1
	c0.2,0.3,0.3,0.6,0.2,0.9l-24.4,67.1l6,6.8l18.4-59.1c0.2-0.5,0.7-0.8,1.2-0.6c0.5,0.2,0.8,0.7,0.6,1.2l-18.9,60.7
	c-0.1,0.3-0.4,0.6-0.7,0.6L1629,43.2z"/>
<path class="st0" d="M1666.4,44.6c-0.2,0-0.4-0.1-0.5-0.2c-0.3-0.2-0.4-0.5-0.4-0.9l6.8-57.6c0.1-0.5,0.5-0.9,1-0.8
	c0.5,0.1,0.9,0.5,0.8,1l-6.5,55.9l16.6-8.7l-3.4-59.5c0-0.5,0.3-1,0.8-1c0,0,0,0,0,0c0.5,0,1,0.3,1,0.8c0,0,0,0,0,0l3.4,60.1
	c0,0.4-0.2,0.7-0.5,0.9l-18.7,9.8C1666.7,44.5,1666.6,44.6,1666.4,44.6z"/>
<path class="st0" d="M1685.1,34.8c-0.5,0-0.9-0.4-0.9-0.9c0-0.3,0.2-0.7,0.5-0.8l23.2-11.4l-16.4-8.9l-6.4,4c-0.4,0.3-1,0.1-1.3-0.3
	c-0.3-0.4-0.1-1,0.3-1.3l6.9-4.3c0.3-0.2,0.6-0.2,0.9,0l18.4,10c0.5,0.2,0.6,0.8,0.4,1.2c-0.1,0.2-0.2,0.3-0.4,0.4l-24.8,12.1
	C1685.3,34.8,1685.2,34.8,1685.1,34.8z"/>
<path class="st0" d="M1691.4,12.6h-0.2c-0.5-0.1-0.8-0.6-0.7-1.1l14.5-71.8l-10-4.5l-12,40.1c-0.1,0.5-0.7,0.8-1.2,0.6c0,0,0,0,0,0
	c-0.5-0.1-0.8-0.7-0.6-1.1c0,0,0,0,0,0l12.3-41.1c0.1-0.3,0.3-0.5,0.5-0.6c0.2-0.1,0.5-0.1,0.8,0l11.7,5.2c0.4,0.2,0.6,0.6,0.5,1
	l-14.6,72.5C1692.3,12.3,1691.9,12.7,1691.4,12.6z"/>
<path class="st0" d="M1709.9,22.6h-0.1c-0.5-0.1-0.8-0.5-0.8-1l11.4-84.1l-14.2,2.6c-0.5,0.1-1-0.2-1.1-0.7c0,0,0,0,0,0
	c-0.1-0.5,0.2-1,0.8-1.1l15.4-2.9c0.3-0.1,0.6,0,0.8,0.2c0.2,0.2,0.3,0.5,0.3,0.8l-11.6,85.3C1710.7,22.3,1710.3,22.6,1709.9,22.6z"
	/>
<path class="st0" d="M1719.7,59.6h-0.2c-0.2-0.1-0.5-0.2-0.6-0.4l-15-24.8c-0.2-0.3-0.2-0.7,0-1l24-50.8c0.2-0.3,0.5-0.5,0.8-0.5
	c0.4,0,0.7,0.2,0.8,0.5l4.8,9.3l18.2-6.1c0.3-0.1,0.6,0,0.8,0.1c0.2,0.2,0.4,0.4,0.4,0.7l2.8,47.3c0,0.3-0.1,0.6-0.4,0.8l-35.9,24.8
	C1720.1,59.6,1719.9,59.6,1719.7,59.6z M1705.8,33.8l14.2,23.5l34.6-24l-2.6-45.5l-17.8,6c-0.4,0.1-0.9-0.1-1.1-0.5l-4.3-8.3
	L1705.8,33.8z"/>
<path class="st0" d="M1719.7,59.6h-0.2c-0.5-0.1-0.8-0.6-0.7-1.1c0,0,0,0,0,0L1733-7.2c0.1-0.5,0.6-0.8,1.1-0.7c0,0,0,0,0,0
	c0.5,0.1,0.8,0.6,0.7,1.1c0,0,0,0,0,0l-14.2,65.7C1720.5,59.3,1720.1,59.6,1719.7,59.6z"/>
<path class="st0" d="M1689.4,64.4c-0.2,0-0.4-0.1-0.6-0.2l-23-19.8c-0.3-0.4-0.2-1,0.2-1.3c0.3-0.2,0.6-0.2,0.9-0.1l22.1,19
	l14.7-28.4c0.2-0.5,0.8-0.6,1.3-0.4s0.6,0.8,0.4,1.3l-15.2,29.4c-0.1,0.3-0.4,0.4-0.7,0.5L1689.4,64.4z"/>
<path class="st0" d="M1600.8,71.4c-0.5,0-0.9-0.4-0.9-0.9c0,0,0,0,0-0.1l6.6-53.8c0-0.4,0.3-0.7,0.7-0.8c0.4-0.1,0.8,0,1,0.3
	l14,17.1c0.3,0.4,0.3,1-0.1,1.3c-0.4,0.3-1,0.3-1.3-0.1l0,0l-12.6-15.5l-6.2,50.6l49.9-3.5c0.5,0,1,0.4,1,0.9s-0.4,1-0.9,1
	L1600.8,71.4L1600.8,71.4z"/>
<path class="st0" d="M1716.6,133c-0.2,0-0.4-0.1-0.6-0.2l-25.9-19.1c-0.2-0.2-0.4-0.4-0.4-0.7l-1.2-49.5c0-0.5,0.4-0.9,0.9-0.9
	c0.5,0,0.9,0.4,0.9,0.9l1.2,49.1l23.8,17.5l-11.2-95c-0.1-0.5,0.3-1,0.8-1s1,0.3,1,0.8l11.5,97.1
	C1717.6,132.5,1717.2,133,1716.6,133C1716.6,133,1716.6,133,1716.6,133z"/>
<path class="st0" d="M1716.6,133c-0.3,0-0.6-0.2-0.8-0.4c-0.2-0.3-0.2-0.7,0-1.1l24.4-33.9l-21.3-38.5c-0.2-0.5,0-1,0.5-1.2
	c0.4-0.2,0.9,0,1.2,0.3l20.9,37.8l37.2-50.8l-23.4-10.6c-0.5-0.2-0.7-0.8-0.4-1.2c0.2-0.5,0.8-0.7,1.2-0.4l24.5,11
	c0.3,0.1,0.4,0.3,0.5,0.6c0.1,0.3,0,0.6-0.2,0.8l-37.9,51.7l67.3,15c0.4,0.1,0.7,0.5,0.7,0.9c0,0.4-0.3,0.8-0.7,0.9l-93.4,19
	L1716.6,133z M1741.7,98.8l-23,31.9l86.8-17.7L1741.7,98.8z"/>
<path class="st0" d="M1600.8,71.4c-0.3,0-0.7-0.2-0.8-0.5l-21-41.3c-0.2-0.3-0.2-0.6,0-0.9l32.5-52c0.2-0.4,0.7-0.5,1.1-0.4
	c0.4,0.2,0.7,0.6,0.6,1l-11.5,93.3c0,0.4-0.4,0.7-0.8,0.8L1600.8,71.4z M1580.9,29.3l19.4,38.1l10.6-86.1L1580.9,29.3z"/>
<path class="st0" d="M1677.9,73.1c-0.4,0-0.7-0.2-0.9-0.6l-11.2-26.4l-13.2,21.3c-0.2,0.2-0.4,0.4-0.7,0.4c-0.3,0-0.6-0.1-0.8-0.3
	l-21.9-24.2l-27.8,27c-0.4,0.4-1,0.4-1.3,0s-0.3-1,0-1.3l0,0l28.5-27.7c0.2-0.2,0.4-0.3,0.7-0.3c0.2,0,0.5,0.1,0.7,0.3l21.7,24
	l13.5-21.8c0.3-0.4,0.8-0.6,1.3-0.3c0.2,0.1,0.3,0.2,0.4,0.4l11.4,27l10.5-8c0.4-0.3,1-0.2,1.3,0.3c0.3,0.4,0.2,0.9-0.2,1.2
	l-11.5,8.7C1678.3,73,1678.1,73.1,1677.9,73.1z"/>
<path class="st0" d="M1621.7,34.7L1621.7,34.7c-0.6,0-1-0.5-0.9-1c0,0,0,0,0,0l2.2-42.1c0-0.3,0.2-0.6,0.5-0.8l15.3-8.2l-8-13.7
	l-18,9.1c-0.5,0.2-1,0-1.2-0.4c-0.2-0.5,0-1,0.4-1.2c0,0,0,0,0,0l18.8-9.5c0.4-0.2,1-0.1,1.2,0.4l8.9,15.3c0.1,0.2,0.2,0.5,0.1,0.7
	c-0.1,0.2-0.2,0.4-0.5,0.6l-15.7,8.4l-2.2,41.6C1622.6,34.3,1622.2,34.7,1621.7,34.7C1621.7,34.7,1621.7,34.7,1621.7,34.7z"/>
<path class="st0" d="M1671.2,136.7c-0.4,0-0.7-0.2-0.8-0.5l-10.1-21.8l-22-2.8c-0.3,0-0.5-0.2-0.7-0.4c-0.2-0.2-0.2-0.5-0.1-0.8
	l13.6-43.3c0.1-0.5,0.6-0.7,1.1-0.6l25.5,5.4c0.5,0.1,0.8,0.6,0.7,1.1c0,0,0,0,0,0c-0.1,0.5-0.6,0.8-1.1,0.7c0,0,0,0,0,0l-24.7-5.2
	l-13,41.5l21.5,2.8c0.3,0,0.6,0.2,0.7,0.5l10.2,22.3c0.2,0.5,0,1-0.4,1.2C1671.4,136.6,1671.3,136.7,1671.2,136.7z"/>
<path class="st0" d="M1671.2,136.7c-0.5,0-0.9-0.4-0.9-0.9c0,0,0-0.1,0-0.1l5.6-56.8l-14.2,34.9c-0.2,0.5-0.7,0.7-1.2,0.5
	c-0.5-0.2-0.7-0.7-0.5-1.2c0,0,0,0,0,0l16.6-40.9c0.2-0.4,0.6-0.7,1.1-0.6c0.5,0.1,0.7,0.5,0.7,1l-6,60.2l17.6-20.5
	c0.3-0.4,0.9-0.4,1.3-0.1c0.4,0.3,0.4,0.9,0.1,1.3c0,0,0,0,0,0l-19.5,22.7C1671.8,136.6,1671.5,136.7,1671.2,136.7z"/>
<path class="st0" d="M1652.8,161.4c-0.4,0-0.8-0.3-0.9-0.7l-14.3-49.4l-17.3-2.4c-0.3,0-0.6-0.2-0.7-0.5l-19.3-37.1l-47,0.1l0,0
	c-0.3,0-0.5-0.1-0.7-0.3c-0.2-0.2-0.2-0.5-0.2-0.8l8.9-41.4c0.1-0.4,0.5-0.7,0.9-0.7h17.7c0.5,0,0.9,0.4,0.9,0.9s-0.4,0.9-0.9,0.9
	h-16.9l-8.5,39.5l46.4-0.1l0,0c0.3,0,0.7,0.2,0.8,0.5l19.4,37.2l17.4,2.4c0.4,0.1,0.7,0.3,0.8,0.7l14.5,50c0.1,0.5-0.1,1-0.6,1.1
	c0,0,0,0,0,0C1653,161.4,1652.9,161.4,1652.8,161.4z"/>
<path class="st0" d="M1754.5,17.8c-0.5,0-0.9-0.4-0.9-0.9c0-0.3,0.1-0.5,0.3-0.7l13.2-10.8l-5.1-48.6c0-0.5,0.3-1,0.8-1
	c0.5,0,0.9,0.3,1,0.8l5.1,49.1c0,0.3-0.1,0.6-0.3,0.8l-13.6,11.1C1754.9,17.7,1754.7,17.7,1754.5,17.8z"/>
<path class="st0" d="M1774.5,15.3c-0.3,0-0.6-0.1-0.8-0.4l-6.4-8.7c-0.2-0.3-0.2-0.8,0-1.1c0.2-0.3,0.6-0.4,1-0.3l21.7,7
	c0.5,0.2,0.8,0.7,0.6,1.2c-0.1,0.4-0.4,0.6-0.8,0.6L1774.5,15.3L1774.5,15.3z M1770.6,7.4l4.3,5.9l10.5-1.1L1770.6,7.4z"/>
<path class="st0" d="M1810,114c-0.4,0-0.8-0.3-0.9-0.7l-14.6-67.8l-14.4,0.4c-0.5,0-0.9-0.3-0.9-0.8l-5.5-30.5
	c-0.1-0.5,0.3-1,0.8-1.1c0.5-0.1,1,0.2,1.1,0.7l5.4,29.8l13.3-0.4l-5.2-30.7l-3-23.9c-0.1-0.4,0.2-0.8,0.6-1c0.4-0.2,0.8,0,1.1,0.3
	l24.9,33.5c0.2,0.3,0.2,0.8,0,1.1l-16.2,21.8l14.7,68.2c0.1,0.5-0.2,1-0.7,1.1c0,0,0,0,0,0L1810,114z M1788.2-7.8l2.6,20.3l5,29.6
	l14.8-19.9L1788.2-7.8z"/>
<path class="st0" d="M1543.7,88.5c-0.1,0-0.2,0-0.3,0c-0.4-0.1-0.7-0.6-0.6-1l4.9-43.2V-8.9c0-0.4,0.3-0.7,0.6-0.9
	c0.4-0.1,0.8,0,1,0.3l31,38.5c0.2,0.3,0.3,0.7,0.1,1.1l-26.3,41l-9.6,16.9C1544.3,88.3,1544,88.5,1543.7,88.5z M1549.5-6.3v50.7
	l-4.4,38.7l7.3-13l26-40.5L1549.5-6.3z"/>
<path class="st0" d="M1522.7,46c-0.1,0-0.2,0-0.3-0.1L1474.6,27c-0.5-0.2-0.7-0.8-0.5-1.2c0.2-0.4,0.7-0.7,1.2-0.5l47.6,18.8
	l25.3-0.7l13.3-14.8c0.4-0.4,1-0.3,1.3,0c0.3,0.3,0.3,0.9,0.1,1.2L1549.3,45c-0.2,0.2-0.4,0.3-0.7,0.3L1522.7,46L1522.7,46z"/>
<path class="st0" d="M1811.7,23.2c-0.2,0-0.3,0-0.5-0.1c-0.3-0.2-0.5-0.5-0.5-0.9l11-96.2c0.1-0.5,0.5-0.9,1-0.8
	c0.5,0.1,0.9,0.5,0.8,1l-10.7,94.1l23.2-16.7l1.2-49.1c0-0.5,0.5-0.9,1-0.9c0.5,0,0.9,0.4,0.9,1c0,0,0,0,0,0L1838,4.2
	c0,0.3-0.2,0.6-0.4,0.7l-25.3,18.2C1812.1,23.2,1811.9,23.2,1811.7,23.2z"/>
<path class="st0" d="M1856,27.8L1856,27.8l-44.4-4.5c-0.3,0-0.5-0.2-0.7-0.4l-24.9-33.5c-0.2-0.3-0.2-0.7-0.1-1l21.4-39.1
	c0.2-0.4,0.8-0.6,1.3-0.4c0.5,0.3,0.6,0.8,0.4,1.3l-21.1,38.5l24.3,32.6l43.9,4.5c0.5,0.1,0.9,0.5,0.8,1.1
	C1856.8,27.4,1856.4,27.8,1856,27.8L1856,27.8z"/>
<path class="st0" d="M1856,27.8c-0.1,0-0.3,0-0.4-0.1c-0.5-0.2-0.7-0.8-0.4-1.2c0,0,0,0,0,0l10.5-22.3c0.1-0.3,0.4-0.5,0.7-0.5
	l21.2-2.8l-12.9-41.5l-24.5,5.2c-0.5,0.1-1-0.2-1.1-0.7c-0.1-0.5,0.2-1,0.7-1.1l25.3-5.4c0.5-0.1,0.9,0.2,1.1,0.6l13.5,43.3
	c0.1,0.3,0,0.5-0.1,0.8c-0.2,0.2-0.4,0.4-0.7,0.4l-21.8,2.8l-10.3,21.8C1856.7,27.6,1856.3,27.8,1856,27.8z"/>
<path class="st0" d="M1933.4,39.1c-0.1,0-0.3,0-0.4-0.1l-67-33.6c-0.2-0.1-0.4-0.3-0.4-0.5l-14.1-35l5.3,56.8c0.1,0.5-0.3,1-0.8,1
	c-0.3,0-0.6-0.1-0.8-0.3l-19-22.7c-0.4-0.4-0.4-1,0-1.3c0.4-0.4,1-0.4,1.3,0c0,0,0.1,0.1,0.1,0.1l17.1,20.5l-5.6-60.2
	c0-0.5,0.3-0.9,0.7-1c0.5-0.1,0.9,0.1,1.1,0.6l16.3,40.5l66.6,33.4c0.5,0.2,0.6,0.8,0.4,1.2C1934.1,38.9,1933.8,39.1,1933.4,39.1
	L1933.4,39.1z"/>
<path class="st0" d="M1888.8,2.6c-0.5,0-0.9-0.3-0.9-0.8c0-0.5,0.3-0.9,0.8-1l17.3-2.5l19.2-37.2c0.2-0.3,0.5-0.5,0.8-0.5l0,0
	l46,0.1l-8.4-39.5h-16.8c-0.5,0-0.9-0.4-0.9-0.9c0,0,0,0,0,0c0-0.5,0.4-0.9,0.9-0.9l0,0h17.5c0.4,0,0.8,0.3,0.9,0.7l8.8,41.4
	c0.1,0.3,0,0.6-0.2,0.8c-0.2,0.2-0.4,0.3-0.7,0.3l0,0l-46.5-0.1l-19.2,37.1c-0.1,0.3-0.4,0.5-0.7,0.5L1889,2.6L1888.8,2.6z"/>
<path class="st0" d="M1845.6,116.6c-0.1,0-0.1,0-0.2,0c-0.4-0.1-0.7-0.4-0.7-0.8l-1.7-15.4c0-0.3,0.1-0.7,0.4-0.9
	c21.3-13.9,21.8-13.9,22.1-13.9c0.2,0,0.5,0.1,0.7,0.3c0.3,0.3,0.4,0.8,0.1,1.2l-19.9,29.1C1846.2,116.5,1845.9,116.6,1845.6,116.6z
	 M1844.8,100.8l1.4,12.3l16.2-23.6C1858,92.2,1850.5,97.1,1844.8,100.8L1844.8,100.8z"/>
<path class="st0" d="M1870,121h-0.2l-24.5-4.4c-0.3-0.1-0.6-0.3-0.7-0.6c-0.1-0.3-0.1-0.6,0.1-0.9c0-0.1,4.9-7.4,9.8-14.6
	c10.2-15,10.5-15,11.2-15c1.1,0,1.1,0,3.2,17.7c0.9,7.7,1.8,15.5,1.9,16.7c0,0.1,0,0.2,0,0.2C1870.9,120.6,1870.5,121,1870,121
	L1870,121L1870,121z M1847.1,115l21.8,4c-1.2-10.8-2.9-25.6-3.7-30.5C1862.2,92.6,1853.2,105.8,1847.1,115L1847.1,115z"/>
<path class="st0" d="M1870,121h-0.2c-0.4-0.1-0.7-0.4-0.7-0.8c-3.8-33.1-3.7-33.4-3.7-33.7c0.1-0.3,0.4-0.6,0.8-0.6
	c0.4,0,0.7,0.1,0.9,0.5l12,21c0.2,0.3,0.2,0.7,0,1l-8.3,12.3C1870.6,120.9,1870.3,121,1870,121z M1867.7,91c0.7,6,1.9,17.4,3,26.5
	l6.6-9.7L1867.7,91z"/>
<path class="st0" d="M1827.2,177.3c-0.3,0-0.5-0.1-0.7-0.3l-7.2-8.5c-0.2-0.2-0.3-0.6-0.2-0.9L1843,100c0.1-0.5,0.7-0.8,1.2-0.6
	c0.5,0.1,0.8,0.7,0.6,1.2c0,0,0,0.1,0,0.1l-23.7,67.1l5.8,6.8l17.9-59.1c0.1-0.5,0.7-0.8,1.2-0.6s0.8,0.7,0.6,1.2l0,0l-18.3,60.7
	c-0.1,0.3-0.4,0.6-0.7,0.6L1827.2,177.3z"/>
<path class="st0" d="M1863.6,178.6c-0.5,0-0.9-0.4-0.9-0.9c0,0,0,0,0-0.1l6.6-57.6c0-0.5,0.4-0.9,0.9-0.9c0.5,0,0.9,0.4,0.9,0.9
	c0,0.1,0,0.1,0,0.2l-6.4,55.8l16-8.7l-3.3-59.5c-0.1-0.5,0.3-1,0.8-1.1s1,0.3,1.1,0.8c0,0.1,0,0.1,0,0.2l3.3,60.1
	c0,0.4-0.2,0.7-0.5,0.9l-18.1,9.8C1863.9,178.6,1863.7,178.6,1863.6,178.6z"/>
<path class="st0" d="M1881.7,168.8c-0.5,0-0.9-0.4-0.9-0.9c0-0.3,0.2-0.7,0.5-0.8l22.5-11.4l-15.8-8.9l-6.2,4
	c-0.4,0.3-1,0.2-1.3-0.2c-0.3-0.4-0.2-1,0.2-1.3c0,0,0.1-0.1,0.1-0.1l6.7-4.3c0.3-0.2,0.7-0.2,0.9,0l17.9,10
	c0.5,0.2,0.6,0.8,0.4,1.3c-0.1,0.2-0.2,0.3-0.4,0.4l-24.1,12.1C1882.1,168.8,1881.9,168.9,1881.7,168.8z"/>
<path class="st0" d="M1887.9,146.7h-0.2c-0.5-0.1-0.8-0.6-0.7-1.1l14-71.7l-9.6-4.4l-11.2,53.7c-0.1,0.5-0.6,0.8-1.1,0.8
	c-0.5-0.1-0.8-0.6-0.8-1.1c0,0,0,0,0-0.1l11.4-54.8c0.1-0.5,0.6-0.8,1.1-0.7c0.1,0,0.1,0,0.2,0.1l11.3,5.2c0.4,0.2,0.6,0.6,0.5,1
	l-14.2,72.5C1888.7,146.4,1888.4,146.7,1887.9,146.7z"/>
<path class="st0" d="M1905.8,156.7h-0.1c-0.5-0.1-0.8-0.5-0.8-1l11.1-84.1l-13.7,2.6c-0.5,0.1-1-0.3-1-0.8c0-0.5,0.2-0.9,0.7-1
	l15-2.9c0.5-0.1,1,0.2,1.1,0.7c0,0.1,0,0.2,0,0.3l-11.3,85.3C1906.7,156.3,1906.3,156.7,1905.8,156.7z"/>
<path class="st0" d="M1857.6,74.3c-0.5,0-0.9-0.4-0.9-0.9l-1.7-46.5c0-0.5,0.4-0.9,0.9-1c0.3,0,0.6,0.1,0.7,0.3l34.1,40.3l15-19.3
	l0,0c0-0.1,0.1-0.1,0.2-0.2l0,0c0.1-0.1,0.1-0.1,0.2-0.1l0,0l26.9-9.6c0.3-0.1,0.7,0,0.9,0.2c0.3,0.2,0.4,0.5,0.3,0.9l-5.5,31.8
	c-0.1,0.4-0.4,0.8-0.9,0.8l-10.9,0.5c-0.4,0-0.7-0.2-0.9-0.5l-9.1-20l-3.8,22.3c-0.1,0.5-0.6,0.9-1.1,0.8c-0.5-0.1-0.9-0.6-0.8-1.1
	l3.6-21.6l-13.5,17.4c-0.2,0.2-0.4,0.3-0.7,0.3c-0.3,0-0.5-0.1-0.7-0.3L1857,29.5l1.6,43.8C1858.6,73.8,1858.2,74.3,1857.6,74.3
	C1857.7,74.3,1857.7,74.3,1857.6,74.3L1857.6,74.3z M1907.8,48.3l9.8,21.2l9.5-0.4l5.1-29.5L1907.8,48.3z"/>
<path class="st0" d="M1915.3,193.7h-0.2c-0.3-0.1-0.5-0.2-0.6-0.4l-14.6-24.9c-0.2-0.3-0.2-0.7,0-1l23.3-50.7
	c0.1-0.3,0.5-0.5,0.8-0.6l0,0c0.4,0,0.7,0.2,0.8,0.5l4.6,9.3l17.6-6.1c0.3-0.1,0.6-0.1,0.8,0.1c0.2,0.2,0.4,0.4,0.4,0.7l2.7,47.3
	c0,0.3-0.1,0.6-0.4,0.8l-34.8,24.8C1915.7,193.6,1915.5,193.7,1915.3,193.7z M1901.8,167.9l13.8,23.5l33.6-23.9l-2.6-45.5l-17.2,6
	c-0.4,0.2-0.9,0-1.1-0.5l-4.1-8.3L1901.8,167.9z"/>
<path class="st0" d="M1915.3,193.7h-0.2c-0.5-0.1-0.8-0.6-0.7-1.1l13.8-65.7c0.1-0.5,0.5-0.9,1-0.8c0.5,0.1,0.9,0.5,0.8,1
	c0,0.1,0,0.1,0,0.2l-13.8,65.7C1916.2,193.4,1915.8,193.7,1915.3,193.7z"/>
<path class="st0" d="M1947.5,121.6c-0.3,0-0.6-0.1-0.7-0.3l-9.7-12.1l-12.4,8.7c-0.4,0.3-1,0.2-1.3-0.2c-0.3-0.4-0.2-1,0.2-1.3
	l13.2-9.2c0.4-0.3,1-0.2,1.3,0.2l10.2,12.8c0.3,0.4,0.3,1-0.1,1.3C1947.9,121.5,1947.7,121.6,1947.5,121.6z"/>
<path class="st0" d="M1929.3,127.8c-0.5,0-0.9-0.4-0.9-0.9c0-0.1,0-0.2,0.1-0.4l8-19c0.2-0.5,0.7-0.7,1.2-0.6
	c0.5,0.2,0.7,0.7,0.6,1.2c0,0,0,0.1-0.1,0.1l-8,19C1930,127.6,1929.7,127.8,1929.3,127.8z"/>
<path class="st0" d="M1886,198.4c-0.2,0-0.4-0.1-0.6-0.2l-22.4-19.8c-0.4-0.4-0.4-1,0-1.3c0.3-0.3,0.9-0.4,1.2-0.1l21.5,19
	l14.2-28.3c0.3-0.4,0.8-0.6,1.3-0.3c0.4,0.2,0.6,0.7,0.4,1.2l-14.8,29.4c-0.1,0.3-0.4,0.4-0.7,0.5L1886,198.4z"/>
<path class="st0" d="M1799.9,205.4c-0.5,0-0.9-0.4-0.9-0.9c0,0,0-0.1,0-0.1l6.4-53.8c0-0.4,0.3-0.7,0.7-0.8c0.4-0.1,0.8,0,1,0.3
	l13.6,17.1c0.3,0.4,0.2,1-0.2,1.3c-0.4,0.3-0.9,0.2-1.2-0.1L1807,153l-6,50.5l48.4-3.5c0.5-0.1,1,0.3,1.1,0.8c0.1,0.5-0.3,1-0.8,1.1
	c0,0-0.1,0-0.1,0l-49.5,3.6L1799.9,205.4z"/>
<path class="st0" d="M1911.9,266.2c-0.2,0-0.4-0.1-0.6-0.2l-24.8-18.2c-0.2-0.2-0.4-0.4-0.4-0.7l-1.2-49.6c0-0.5,0.4-0.9,0.9-0.9
	c0,0,0,0,0,0l0,0c0.5,0,0.9,0.4,0.9,0.9l1.2,49.1l22.7,16.7l-10.5-94.1c-0.1-0.5,0.3-1,0.8-1c0.5-0.1,1,0.3,1,0.8l0,0l10.8,96.2
	c0,0.4-0.1,0.7-0.5,0.9C1912.2,266.1,1912.1,266.2,1911.9,266.2z"/>
<path class="st0" d="M1868.5,270.7c-0.5,0-0.9-0.5-0.9-1c0-0.4,0.4-0.8,0.8-0.9l43-4.5l23.8-32.6l-20.7-38.5c-0.2-0.5-0.1-1,0.4-1.3
	s1-0.1,1.3,0.4l21,39.1c0.2,0.3,0.2,0.7-0.1,1l-24.4,33.5c-0.2,0.2-0.4,0.3-0.7,0.4l-43.4,4.5L1868.5,270.7z"/>
<path class="st0" d="M1799.9,205.4c-0.4,0-0.7-0.2-0.8-0.5l-20.4-41.3c-0.2-0.3-0.2-0.6,0-0.9l30.5-50.2c0.2-0.4,0.7-0.5,1.1-0.4
	c0.4,0.2,0.7,0.6,0.6,1l-10.1,91.4c0,0.4-0.4,0.7-0.8,0.8L1799.9,205.4z M1780.5,163.3l18.8,38l9.3-84.1L1780.5,163.3z"/>
<path class="st0" d="M1874.8,207.1c-0.1,0-0.2,0-0.2,0c-0.3-0.1-0.5-0.3-0.6-0.6l-10.9-26.4l-12.8,21.3c-0.3,0.4-0.8,0.6-1.3,0.3
	c-0.1,0-0.2-0.1-0.2-0.2l-21.2-24.2l-26.9,26.9c-0.3,0.4-0.9,0.4-1.3,0c0,0,0,0,0,0c-0.4-0.4-0.4-0.9,0-1.3l27.6-27.6
	c0.2-0.2,0.4-0.3,0.7-0.3c0.3,0,0.5,0.1,0.7,0.3l21.1,24l13.1-21.8c0.3-0.4,0.8-0.6,1.3-0.3c0.2,0.1,0.3,0.3,0.4,0.5l11.1,26.9
	l10.2-7.9c0.4-0.3,1-0.2,1.3,0.3c0.2,0.4,0.2,0.9-0.2,1.2l-11.2,8.7C1875.1,207,1874.9,207.1,1874.8,207.1z"/>
<path class="st0" d="M1820.1,168.7L1820.1,168.7c-0.6,0-1-0.5-0.9-1c0,0,0,0,0,0l2.1-42.1c0-0.3,0.2-0.6,0.5-0.8l14.9-8.2l-7.8-13.6
	l-18.5,10.9c-0.4,0.3-1,0.2-1.3-0.2c-0.3-0.4-0.2-1,0.2-1.3c0,0,0.1,0,0.1-0.1l19.3-11.3c0.2-0.1,0.5-0.2,0.7-0.1
	c0.2,0.1,0.4,0.2,0.6,0.4l8.7,15.3c0.1,0.2,0.2,0.5,0.1,0.7c-0.1,0.2-0.2,0.4-0.4,0.6l-15.2,8.4l-2.1,41.6
	C1821,168.3,1820.6,168.7,1820.1,168.7z"/>
<path class="st0" d="M1822.3,126.6c-0.3,0-0.5-0.1-0.7-0.3l-12.3-12.6c-0.4-0.4-0.4-0.9,0-1.3c0.4-0.4,1-0.4,1.3,0l11.2,11.5
	l6.6-22.4c0-0.2,0.1-0.3,0.2-0.4l28.4-28.4c0.2-0.2,0.5-0.3,0.8-0.3c0.3,0,0.5,0.2,0.7,0.4l8.7,13.4c0.3,0.4,0.2,1-0.3,1.3
	c0,0,0,0,0,0c-0.4,0.3-1,0.2-1.3-0.3c0,0,0,0,0,0l-8.1-12.5l-27.3,27.4l-7,23.7c-0.1,0.3-0.3,0.6-0.7,0.6L1822.3,126.6z"/>
<path class="st0" d="M1868.6,270.7c-0.4,0-0.7-0.2-0.8-0.5l-10.1-21.8l-21.4-2.8c-0.3,0-0.5-0.2-0.7-0.4c-0.2-0.2-0.2-0.5-0.1-0.8
	l13.2-43.3c0.1-0.5,0.6-0.7,1.1-0.6l24.8,5.4c0.5,0.1,0.8,0.6,0.7,1.1c-0.1,0.5-0.6,0.8-1.1,0.7c0,0,0,0,0,0l-24-5.2l-12.7,41.5
	l20.8,2.7c0.3,0.1,0.6,0.3,0.7,0.5l10.3,22.3c0.2,0.5,0,1-0.4,1.2C1868.8,270.7,1868.7,270.7,1868.6,270.7z"/>
<path class="st0" d="M1836.3,245.5h-0.1l-17.4-2.5c-0.3,0-0.6-0.2-0.7-0.5l-18.8-37.1l-45.6,0.1l0,0c-0.5,0-0.9-0.4-0.9-0.9
	c0-0.1,0-0.1,0-0.2l8.6-41.4c0.1-0.4,0.5-0.7,0.9-0.7h17.2c0.5,0,0.9,0.4,0.9,0.9c0,0.5-0.4,0.9-0.9,0.9h-16.4l-8.2,39.5l45-0.1l0,0
	c0.4,0,0.7,0.2,0.8,0.5l18.8,37.2l16.9,2.4c0.5,0,0.9,0.5,0.9,1S1836.8,245.5,1836.3,245.5L1836.3,245.5z"/>
<path class="st0" d="M1946.1,103.1L1946.1,103.1l-33-3.3c-0.4,0-0.7-0.3-0.8-0.6c-0.1-0.4,0-0.7,0.2-1l30.4-28.5
	c0.2-0.2,0.5-0.3,0.7-0.2c0.3,0,0.5,0.2,0.7,0.4l13.8,20.2c0.2,0.4,0.2,0.9-0.1,1.2l-11.3,11.6
	C1946.6,102.9,1946.3,103.1,1946.1,103.1z M1915.3,98.1l30.4,3l10.5-10.7l-12.8-18.7L1915.3,98.1z"/>
<path class="st0" d="M1947.5,121.6c-0.5,0-0.9-0.4-0.9-0.9l-1.4-18.5l-2.5-31c0-0.5,0.3-1,0.9-1c0.5,0,1,0.3,1,0.9l2.5,31l1.4,18.5
	C1948.5,121.1,1948.1,121.5,1947.5,121.6C1947.6,121.6,1947.6,121.6,1947.5,121.6L1947.5,121.6z"/>
<path class="st0" d="M1949.1,151.8c-0.3,0-0.5-0.1-0.7-0.3c-0.3-0.4-0.3-1,0.1-1.3l12.8-10.8l-4.9-48.7c-0.1-0.5,0.3-1,0.8-1
	c0.5-0.1,1,0.3,1,0.8c0,0,0,0,0,0.1l5,49.1c0,0.3-0.1,0.6-0.3,0.8l-13.2,11.1C1949.6,151.7,1949.4,151.8,1949.1,151.8z"/>
<path class="st0" d="M1936.3,232.7c-0.2,0-0.4-0.1-0.5-0.2c-0.4-0.3-0.5-0.9-0.2-1.3c0,0,0,0,0,0l37-51.9l-22.7-10.6
	c-0.5-0.2-0.7-0.7-0.6-1.2c0.2-0.5,0.7-0.7,1.2-0.6c0.1,0,0.1,0,0.2,0.1l23.8,11c0.2,0.1,0.4,0.3,0.5,0.6c0.1,0.3,0,0.6-0.2,0.8
	l-37.6,52.8C1936.9,232.6,1936.6,232.7,1936.3,232.7z"/>
<path class="st0" d="M1968.6,149.3c-0.3,0-0.6-0.1-0.8-0.4l-6.2-8.7c-0.2-0.3-0.2-0.8,0-1.1c0.2-0.3,0.6-0.4,1-0.3l21.1,7
	c0.4,0.1,0.7,0.6,0.6,1c0,0.4-0.4,0.8-0.8,0.8L1968.6,149.3L1968.6,149.3z M1964.8,141.5l4.2,5.9l10.1-1.1L1964.8,141.5z"/>
<path class="st0" d="M1988.8,180.1L1988.8,180.1l-14.9-0.3c-0.4,0-0.8-0.3-0.9-0.8l-5.4-30.6c-0.1-0.5,0.3-1,0.8-1
	c0.5-0.1,0.9,0.3,1,0.7l5.2,29.8l13,0.2l-5.2-31.4c-0.1-0.5,0.2-1,0.7-1.1c0.5-0.1,1,0.2,1.1,0.7c0,0,0,0.1,0,0.1l5.4,32.5
	c0.1,0.5-0.2,1-0.7,1.1C1988.9,180.1,1988.9,180.1,1988.8,180.1L1988.8,180.1z"/>
<path class="st0" d="M1753.7,205.6c-0.2,0-0.3-0.1-0.5-0.1c-0.4-0.3-0.6-0.8-0.3-1.3l25.3-40.5l-18.3-35.3l3.3,34.9
	c0,0.4-0.1,0.7-0.4,0.9c-0.3,0.2-0.7,0.2-1,0l-44.3-30.2l-0.6,46.8c0,0.5-0.4,0.9-0.9,0.9l0,0c-0.5,0-0.9-0.4-0.9-0.9c0,0,0,0,0,0
	l0.6-48.5c0-0.3,0.2-0.7,0.5-0.8c0.3-0.2,0.7-0.1,0.9,0.1l44.1,30l-3.6-37.7c0-0.5,0.3-1,0.8-1c0.4,0,0.7,0.2,0.9,0.5l20.7,40
	c0.2,0.3,0.2,0.6,0,0.9l-25.6,41C1754.4,205.4,1754,205.6,1753.7,205.6z"/>
<path class="st0" d="M2056.1,70c-0.1,0-0.3,0-0.4-0.1l-18.5-9.8c-0.3-0.2-0.5-0.5-0.5-0.9l3.4-60.1c0-0.5,0.5-0.9,1-0.9c0,0,0,0,0,0
	c0.5,0,0.9,0.5,0.9,1c0,0,0,0,0,0l-3.4,59.5l16.5,8.7l-6.5-55.8c0-0.5,0.3-0.9,0.8-1c0.5,0,0.9,0.3,1,0.8L2057,69
	c0,0.3-0.1,0.7-0.4,0.9C2056.4,70,2056.2,70,2056.1,70z"/>
<path class="st0" d="M2037.5,60.2c-0.1,0-0.3,0-0.4-0.1L2012.5,48c-0.3-0.2-0.5-0.5-0.5-0.8c0-0.3,0.2-0.7,0.5-0.8l18.3-10
	c0.3-0.2,0.6-0.2,0.9,0l6.8,4.3c0.4,0.3,0.6,0.9,0.3,1.3s-0.9,0.6-1.3,0.3l-6.4-4l-16.3,8.9l23,11.4c0.5,0.2,0.6,0.8,0.4,1.2
	C2038.1,60,2037.8,60.2,2037.5,60.2L2037.5,60.2z"/>
<path class="st0" d="M2031.2,38.1c-0.4,0-0.8-0.3-0.9-0.8l-14.5-72.5c-0.1-0.4,0.1-0.8,0.5-1l11.6-5.2c0.3-0.1,0.5-0.1,0.8,0
	c0.3,0.1,0.4,0.4,0.5,0.6l11.7,54.8c0.1,0.5-0.2,1-0.7,1.1c-0.5,0.1-1-0.2-1.1-0.7l-11.5-53.7l-9.8,4.5l14.3,71.8
	c0.1,0.5-0.2,1-0.7,1.1c0,0,0,0,0,0H2031.2z"/>
<path class="st0" d="M2012.9,48.1c-0.5,0-0.9-0.3-0.9-0.8L2000.4-38c0-0.3,0.1-0.6,0.3-0.8c0.2-0.2,0.5-0.3,0.8-0.2l15.3,2.9
	c0.5,0.1,0.8,0.6,0.7,1.1c-0.1,0.5-0.6,0.8-1.1,0.7c0,0,0,0,0,0l-14.1-2.6l11.3,84.1c0,0.5-0.3,0.9-0.8,1L2012.9,48.1z"/>
<path class="st0" d="M2003.1,85.1c-0.2,0-0.4-0.1-0.5-0.2l-35.6-24.8c-0.3-0.2-0.4-0.5-0.4-0.8l2.7-47.3c0-0.3,0.2-0.6,0.4-0.7
	c0.2-0.2,0.5-0.2,0.8-0.1l18,6.1l4.8-9.3c0.2-0.5,0.8-0.7,1.2-0.5c0.2,0.1,0.4,0.3,0.5,0.5l23.8,50.8c0.2,0.3,0.2,0.7,0,1
	l-14.9,24.9c-0.1,0.2-0.4,0.4-0.6,0.4L2003.1,85.1z M1968.4,58.8l34.4,24l14.2-23.6l-22.9-48.8l-4.3,8.3c-0.2,0.4-0.7,0.6-1.1,0.5
	l-17.6-6L1968.4,58.8z"/>
<path class="st0" d="M2003.1,85.1c-0.4,0-0.8-0.3-0.9-0.7l-14.1-65.7c-0.1-0.5,0.2-1,0.7-1.1c0,0,0,0,0,0c0.5-0.1,1,0.2,1.1,0.7
	l14.1,65.7c0.1,0.5-0.2,1-0.7,1.1L2003.1,85.1z"/>
<path class="st0" d="M1970.2,13c-0.5,0-0.9-0.4-0.9-0.9c0-0.2,0.1-0.4,0.2-0.6l10.4-12.8c0.3-0.4,0.8-0.4,1.2-0.2l13.5,9.2
	c0.4,0.3,0.6,0.8,0.3,1.3c-0.3,0.4-0.8,0.6-1.3,0.3c0,0-0.1,0-0.1-0.1l-12.8-8.7l-9.9,12.1C1970.7,12.9,1970.5,13,1970.2,13z"/>
<path class="st0" d="M1988.8,19.2c-0.4,0-0.7-0.2-0.8-0.6l-8.2-19c-0.2-0.5,0-1,0.5-1.2c0.5-0.2,1,0,1.2,0.5l8.2,19
	c0.2,0.5,0,1-0.5,1.2C1989.1,19.2,1989,19.2,1988.8,19.2L1988.8,19.2z"/>
<path class="st0" d="M2033.2,89.9h-0.2c-0.3-0.1-0.5-0.2-0.7-0.5L2017.3,60c-0.2-0.5-0.1-1,0.4-1.2c0.5-0.2,1,0,1.2,0.4c0,0,0,0,0,0
	l14.6,28.4l22-19c0.4-0.4,1-0.4,1.3,0c0.4,0.4,0.4,1,0,1.3c0,0-0.1,0-0.1,0.1l-22.9,19.8C2033.6,89.8,2033.4,89.9,2033.2,89.9z"/>
<path class="st0" d="M2006.6,157.6c-0.2,0-0.3,0-0.5-0.1c-0.3-0.2-0.5-0.5-0.4-0.9l11-96.2c0.1-0.5,0.5-0.9,1-0.8
	c0.5,0.1,0.9,0.5,0.8,1l-10.8,94.1l23.3-16.7l1.2-49.1c0-0.5,0.4-0.9,0.9-0.9c0.5,0,0.9,0.4,0.9,0.9c0,0,0,0,0,0l-1.2,49.6
	c0,0.3-0.1,0.6-0.4,0.7l-25.4,18.2C2007,157.5,2006.8,157.6,2006.6,157.6z"/>
<path class="st0" d="M2006.6,157.6c-0.3,0-0.6-0.1-0.8-0.4l-24.9-33.4c-0.2-0.3-0.2-0.7-0.1-1l21.4-39.1c0.2-0.4,0.8-0.6,1.3-0.4
	c0,0,0,0,0,0c0.4,0.2,0.6,0.8,0.4,1.2c0,0,0,0,0,0l-21.2,38.5l24.6,33c0.3,0.4,0.2,1-0.2,1.3C2007,157.5,2006.8,157.6,2006.6,157.6
	L2006.6,157.6z"/>
<path class="st0" d="M2044.7,98.5c-0.2,0-0.4-0.1-0.6-0.2l-11.4-8.7c-0.4-0.3-0.4-0.9-0.1-1.3c0.3-0.4,0.8-0.4,1.2-0.2l10.5,8
	l11.4-27c0.1-0.3,0.4-0.5,0.8-0.6c0.3,0,0.7,0.1,0.9,0.4l13.4,21.8l21.6-24c0.2-0.2,0.4-0.3,0.7-0.3c0.3,0,0.5,0.1,0.7,0.3
	l28.3,27.6c0.4,0.4,0.4,1,0,1.3c-0.4,0.4-0.9,0.4-1.3,0l-27.6-27L2071.3,93c-0.2,0.2-0.5,0.3-0.8,0.3c-0.3,0-0.6-0.2-0.7-0.4
	l-13.1-21.3L2045.5,98c-0.1,0.3-0.3,0.5-0.6,0.5L2044.7,98.5z"/>
<path class="st0" d="M2051,162.1c-0.3,0-0.5-0.1-0.7-0.3l-19-22.7c-0.3-0.4-0.3-1,0.1-1.3s1-0.3,1.3,0.1l0,0l17.1,20.4l-5.6-60.2
	c-0.1-0.5,0.2-0.9,0.7-1c0.4-0.1,0.9,0.1,1.1,0.6l16.5,40.9c0.2,0.5,0,1-0.4,1.2s-1,0-1.2-0.4c0,0,0-0.1,0-0.1l-14.1-35l5.3,56.8
	c0,0.5-0.3,1-0.8,1C2051.1,162.1,2051.1,162.1,2051,162.1L2051,162.1z"/>
<path class="st0" d="M1970.2,13L1970.2,13c-0.6,0-1-0.5-0.9-1c0,0,0,0,0,0l1.4-18.5l2.6-31c0-0.5,0.5-0.9,1-0.8c0.5,0,0.9,0.5,0.8,1
	l-2.6,31l-1.4,18.5C1971.1,12.6,1970.7,13,1970.2,13z"/>
<path class="st0" d="M1968.5,43.2c-0.2,0-0.4-0.1-0.5-0.2l-13.5-11.1L1906.1,0c-0.3-0.2-0.5-0.5-0.4-0.9c0-0.4,0.3-0.7,0.6-0.8
	l53.5-17.2c0.3-0.1,0.6,0,0.9,0.2c0.2,0.2,0.4,0.5,0.3,0.8l-5,48.6l13.2,10.8c0.4,0.3,0.4,0.9,0.1,1.3c0,0,0,0,0,0
	C1969.1,43.1,1968.8,43.2,1968.5,43.2z M1908.7-0.5l45.5,30l4.8-46.2L1908.7-0.5z"/>
<path class="st0" d="M1981.7,124.1c-0.3,0-0.6-0.1-0.8-0.4l-38.5-52.8c-0.2-0.2-0.2-0.5-0.2-0.8c0.1-0.3,0.3-0.5,0.5-0.6l24.3-11
	c0.5-0.2,1-0.1,1.3,0.4c0.2,0.5,0.1,1-0.4,1.3c0,0-0.1,0-0.1,0l-23.3,10.5l37.8,51.9c0.3,0.4,0.2,1-0.2,1.3
	C1982,124.1,1981.8,124.1,1981.7,124.1z"/>
<path class="st0" d="M1948.7,40.7L1948.7,40.7l-15.3-1.7c-0.4-0.1-0.8-0.4-0.8-0.8c-0.1-0.4,0.2-0.9,0.6-1l21.6-7
	c0.4-0.1,0.8,0,1,0.3c0.2,0.3,0.2,0.8,0,1.1l-6.3,8.7C1949.2,40.6,1949,40.7,1948.7,40.7z M1937.9,37.7l10.4,1.1l4.3-5.9
	L1937.9,37.7z"/>
<path class="st0" d="M1943.2,71.3L1943.2,71.3l-15.2-0.4c-0.3,0-0.5-0.1-0.7-0.3c-0.2-0.2-0.2-0.5-0.2-0.7l5.5-31.8
	c0.1-0.5,0.6-0.8,1.1-0.7c0.5,0.1,0.8,0.5,0.7,1l-5.3,30.7l13.3,0.4l5.3-29.8c0.1-0.5,0.6-0.8,1.1-0.7c0.5,0.1,0.8,0.6,0.7,1.1
	l-5.5,30.5C1944,70.9,1943.6,71.3,1943.2,71.3z"/>
<path class="st0" d="M1914.6,97.3c-0.5,0-0.9-0.4-0.9-0.9c0-0.1,0-0.3,0.1-0.4l13.3-26.4c0.3-0.4,0.8-0.6,1.3-0.3
	c0.4,0.2,0.6,0.7,0.4,1.2l-13.3,26.4C1915.3,97.1,1915,97.3,1914.6,97.3z"/>
<path class="st0" d="M1906.5,48.7c-0.1,0-0.2,0-0.4-0.1l-50.6-20.9c-0.5-0.2-0.8-0.7-0.6-1.2c0.2-0.5,0.7-0.8,1.2-0.6
	c0.1,0,0.1,0,0.2,0.1l50.6,20.9c0.5,0.2,0.7,0.8,0.5,1.2C1907.2,48.5,1906.9,48.7,1906.5,48.7L1906.5,48.7z"/>
<path class="st0" d="M1765.4,104.1c-0.2,0-0.4-0.1-0.6-0.2c-0.3-0.2-0.4-0.6-0.3-1l14.2-56.4c0.1-0.5,0.6-0.8,1.1-0.7
	c0.5,0.1,0.8,0.6,0.7,1.1l0,0l-13.7,54.3l35.9-20c0.1-0.1,0.2-0.1,0.3-0.1l51.5-8.3l-59.6-27.6c-0.5-0.2-0.7-0.8-0.5-1.2
	c0.2-0.5,0.8-0.7,1.2-0.5l0,0l62.4,28.9c0.4,0.2,0.6,0.6,0.5,1c-0.1,0.4-0.4,0.7-0.8,0.8l-54.3,8.7l-37.6,21
	C1765.7,104.1,1765.5,104.1,1765.4,104.1z"/>
<path class="st0" d="M192.5,197.5l22.6,27.5c0.3,0.3,0.3,0.9,0,1.2c-0.2,0.2-0.4,0.3-0.6,0.3c-0.4,0-0.8,0.1-23.7-12.2
	c-0.3-0.2-0.5-0.5-0.5-0.9l0.6-15.4c0-0.4,0.3-0.7,0.6-0.9c0.1,0,0.1,0,0.2,0C192,197.2,192.3,197.3,192.5,197.5z M211,222.9
	l-18.4-22.4l-0.5,12.4C198.2,216.2,206.3,220.6,211,222.9z"/>
<path class="st0" d="M216.4,190.8c0.5,0,1,0.3,1,0.9c0,0,0,0,0,0c0,0.1,0,0.2,0,0.3c0,1.2-0.4,9-0.7,16.8
	c-0.8,17.8-0.8,17.8-1.9,17.9c-0.7,0.1-1,0.1-12.6-14.1c-5.6-6.8-11.1-13.8-11.2-13.8c-0.2-0.2-0.3-0.6-0.2-0.9
	c0.1-0.3,0.3-0.5,0.6-0.6l24.7-6.3L216.4,190.8L216.4,190.8z M214,223.7c0.4-5,1-19.9,1.4-30.8l-22.1,5.7
	C200.4,207.4,210.6,219.9,214,223.7z"/>
<path class="st0" d="M217.2,191.2l9.5,11.6c0.2,0.3,0.3,0.7,0.1,1L216,225.6c-0.2,0.3-0.5,0.5-0.9,0.5c-0.4,0-0.7-0.2-0.8-0.6
	c-0.1-0.2-0.2-0.5,1.2-33.9c0-0.4,0.3-0.7,0.6-0.8c0.1,0,0.1,0,0.2,0C216.7,190.8,217,190.9,217.2,191.2z M224.8,203.5l-7.5-9.2
	c-0.4,9.2-0.9,20.7-1.1,26.8L224.8,203.5z"/>
<path class="st0" d="M168.3,138.1c-0.3,0-0.5,0.2-0.7,0.4l-6.7,9c-0.2,0.3-0.2,0.6-0.1,0.9l29.5,65.6c0.3,0.4,0.8,0.6,1.3,0.4
	c0.4-0.2,0.6-0.7,0.4-1.1l-29.3-65.1l5.4-7.2l22.8,57.6c0.2,0.5,0.7,0.7,1.2,0.5c0.5-0.2,0.7-0.7,0.5-1.2l-23.4-59.1
	c-0.1-0.3-0.4-0.5-0.7-0.6L168.3,138.1z"/>
<path class="st0" d="M205.4,133.9c-0.2,0-0.4,0.1-0.5,0.2c-0.3,0.2-0.4,0.6-0.3,0.9l11.1,56.9c0.1,0.5,0.5,0.9,1,0.8
	c0.5-0.1,0.9-0.5,0.8-1c0,0,0-0.1,0-0.1l-10.8-55.2l17.1,7.4l1.1,59.6c0,0.5,0.4,0.9,0.9,0.9c0,0,0,0,0,0c0.5,0,0.9-0.5,0.9-1
	l-1.1-60.2c0-0.4-0.2-0.7-0.6-0.8l-19.3-8.3C205.7,133.9,205.6,133.9,205.4,133.9z"/>
<path class="st0" d="M224.7,142.2c-0.4,0-0.7,0.3-0.8,0.6c-0.2,0.5,0,1,0.5,1.2c0,0,0,0,0,0l23.9,9.6l-15.6,10.1l-6.7-3.5
	c-0.5-0.2-1,0-1.2,0.5c-0.2,0.4,0,0.9,0.4,1.1l7.2,3.8c0.3,0.2,0.6,0.2,0.9,0l17.6-11.4c0.3-0.2,0.5-0.5,0.4-0.9
	c0-0.3-0.3-0.6-0.6-0.8l-25.6-10.2C225,142.3,224.9,142.3,224.7,142.2z"/>
<path class="st0" d="M232.8,163.9h-0.2c-0.5,0.1-0.8,0.6-0.7,1.1c0,0,0,0,0,0l19.8,70.4l-9.5,5.2L226.6,188
	c-0.1-0.5-0.6-0.8-1.1-0.7c-0.5,0.1-0.8,0.6-0.7,1.1c0,0,0,0.1,0,0.1l15.9,53.8c0.1,0.3,0.3,0.5,0.5,0.6c0.3,0.1,0.5,0.1,0.8,0
	l11.2-6.1c0.4-0.2,0.6-0.7,0.4-1.1l-20-71.2C233.6,164.1,233.2,163.8,232.8,163.9z"/>
<path class="st0" d="M250.3,152.5h-0.1c-0.5,0.1-0.8,0.6-0.7,1.1c0,0,0,0,0,0l17.7,83l-14.3-1.6c-0.5,0-0.9,0.3-1,0.8
	c0,0.5,0.3,0.9,0.8,1l15.5,1.7c0.5,0,1-0.3,1-0.9c0-0.1,0-0.2,0-0.3l-18-84.2C251.2,152.7,250.7,152.5,250.3,152.5z"/>
<path class="st0" d="M268.3,236.7c-0.4,0-0.7,0.3-0.8,0.6l-8.5,22l-16.6-17.9c-0.4-0.3-1-0.3-1.3,0.1c-0.3,0.3-0.3,0.8,0,1.2
	l17.6,19c0.3,0.4,0.9,0.4,1.3,0c0.1-0.1,0.2-0.2,0.2-0.3l9.1-23.4c0.2-0.5-0.1-1-0.5-1.2C268.6,236.7,268.4,236.7,268.3,236.7z"/>
<path class="st0" d="M252.9,235.2h-0.2c-0.5,0.1-0.8,0.6-0.7,1.1c0,0,0,0,0,0l6.2,24.9c0.1,0.5,0.6,0.8,1.1,0.7
	c0.5-0.1,0.8-0.6,0.7-1.1l-6.3-24.9C253.8,235.5,253.4,235.2,252.9,235.2z"/>
<path class="st0" d="M257.8,115l37.5,22c0.3,0.2,0.5,0.5,0.5,0.8l0.8,47.3c0,0.3-0.1,0.6-0.4,0.7c-0.2,0.2-0.5,0.2-0.8,0.2
	l-18.5-4.7l-4.1,9.6c-0.2,0.5-0.7,0.7-1.2,0.5c-0.2-0.1-0.4-0.2-0.5-0.4l-27.6-48.8c-0.2-0.3-0.3-0.7-0.1-1l13-25.9
	c0.1-0.2,0.3-0.4,0.6-0.5h0.2C257.4,114.9,257.6,114.9,257.8,115z M271.9,188.5l3.6-8.6c0.2-0.4,0.6-0.6,1.1-0.5l18.1,4.6l-0.8-45.6
	l-36.2-21.3l-12.4,24.5L271.9,188.5z"/>
<path class="st0" d="M257.3,114.9h-0.2c-0.5,0.1-0.8,0.7-0.6,1.2l19.1,64.5c0.1,0.5,0.7,0.8,1.2,0.6s0.8-0.7,0.6-1.2l-19.1-64.5
	C258.1,115.1,257.7,114.9,257.3,114.9z"/>
<path class="st0" d="M295.6,184.3c-0.3,0-0.5,0.2-0.7,0.4l-9,12.9l-13.4-7.7c-0.4-0.3-1-0.1-1.3,0.3c-0.3,0.4-0.1,1,0.3,1.3
	c0,0,0,0,0,0l14.2,8.1c0.4,0.2,0.9,0.1,1.2-0.3l9.5-13.6c0.3-0.4,0.2-1-0.2-1.3C296,184.3,295.8,184.3,295.6,184.3L295.6,184.3z"/>
<path class="st0" d="M276.5,179.5c-0.1,0-0.2,0-0.4,0.1c-0.5,0.2-0.6,0.8-0.4,1.3l9.6,18.3c0.3,0.4,0.9,0.6,1.3,0.3
	c0.4-0.2,0.5-0.7,0.4-1.1l-9.6-18.3C277.2,179.7,276.9,179.5,276.5,179.5z"/>
<path class="st0" d="M226.8,112.4c-0.2,0-0.4,0.1-0.6,0.3l-21.4,21.5c-0.4,0.4-0.4,1,0,1.3c0,0,0,0,0,0c0.4,0.4,0.9,0.4,1.3,0
	c0,0,0,0,0,0l20.5-20.7l16.7,27.2c0.3,0.4,0.9,0.6,1.3,0.3c0.4-0.3,0.6-0.9,0.3-1.3l-17.3-28.2c-0.1-0.2-0.4-0.4-0.7-0.4
	C226.9,112.4,226.9,112.4,226.8,112.4z"/>
<path class="st0" d="M138.2,112.1c-0.3,0-0.5,0.1-0.6,0.3c-0.2,0.2-0.2,0.5-0.2,0.8l10.7,53.2c0.1,0.4,0.4,0.7,0.7,0.7
	c0.4,0.1,0.7-0.1,0.9-0.4l12.6-18.1c0.3-0.4,0.2-1-0.2-1.3c-0.4-0.3-1-0.2-1.3,0.2l-11.4,16.3l-10-49.9l49.8-0.3
	c0.5,0,0.9-0.4,0.9-0.9s-0.4-0.9-0.9-0.9L138.2,112.1L138.2,112.1z"/>
<path class="st0" d="M248.3,42.9c-0.2,0-0.4,0.1-0.5,0.2l-24,20c-0.2,0.2-0.3,0.5-0.3,0.8l2.5,49.5c0,0.5,0.5,0.9,1,0.9
	c0.5,0,0.9-0.5,0.9-1l-2.5-49l22-18.4l-3.6,94.7c-0.1,0.5,0.3,1,0.8,1c0.5,0.1,1-0.3,1-0.8c0-0.1,0-0.1,0-0.2l3.7-96.8
	c0-0.4-0.2-0.7-0.5-0.9C248.6,42.9,248.4,42.9,248.3,42.9z"/>
<path class="st0" d="M248.5,42.9l92.6,12.7c0.5,0.1,0.9,0.6,0.8,1.1c-0.1,0.4-0.3,0.6-0.7,0.8l-63.8,18.3l41.5,48.7
	c0.2,0.2,0.3,0.5,0.2,0.8c0,0.3-0.2,0.5-0.5,0.7l-23.4,12.8c-0.4,0.2-1,0.1-1.3-0.4c0,0,0,0,0,0c-0.2-0.5-0.1-1,0.4-1.3l22.5-12.3
	L276.1,77l-17.9,39.2c-0.2,0.5-0.7,0.7-1.2,0.5c-0.5-0.2-0.7-0.7-0.5-1.2c0,0,0-0.1,0-0.1l18.3-40l-27.1-31
	c-0.3-0.3-0.3-0.7-0.1-1.1c0.1-0.3,0.4-0.5,0.7-0.5C248.4,42.9,248.4,42.9,248.5,42.9z M336.5,56.9L250.7,45l25.4,29.2L336.5,56.9z"
	/>
<path class="st0" d="M138.4,112.1c0.4,0,0.7,0.3,0.8,0.7l19,92.9c0.1,0.4-0.1,0.8-0.5,1c-0.4,0.2-0.9,0-1.1-0.3l-36.7-50.2
	c-0.2-0.3-0.2-0.6-0.1-0.9l17.7-42.7c0.1-0.3,0.4-0.5,0.8-0.6L138.4,112.1z M155.6,202L138,116.2l-16.4,39.5L155.6,202z"/>
<path class="st0" d="M214.7,104.6c-0.1,0-0.2,0-0.2,0c-0.3,0.1-0.5,0.3-0.6,0.6l-9.1,27.2L190,112.2c-0.2-0.2-0.4-0.4-0.7-0.4
	c-0.3,0-0.6,0.1-0.8,0.4L168.6,138L139,113.2c-0.4-0.3-1-0.3-1.3,0.1c-0.3,0.4-0.3,1,0.1,1.3l0,0l30.3,25.4c0.4,0.3,1,0.3,1.3-0.1
	c0,0,0,0,0,0l19.8-25.6l15.1,20.7c0.3,0.4,0.9,0.5,1.3,0.2c0.2-0.1,0.3-0.3,0.3-0.4l9.3-27.8l11.1,7.1c0.4,0.3,1,0.1,1.3-0.3
	c0.3-0.4,0.1-1-0.3-1.3l-12.1-7.8C215.1,104.7,214.9,104.6,214.7,104.6z"/>
<path class="st0" d="M161.7,147.2L161.7,147.2c-0.5,0.1-0.8,0.5-0.8,1l5.3,41.8c0,0.3,0.2,0.6,0.5,0.7l15.9,7l-6.9,14.3l-18-7
	c-0.5-0.2-1,0-1.2,0.4c-0.2,0.5,0,1,0.4,1.2c0,0,0.1,0,0.1,0l18.8,7.3c0.5,0.1,0.9,0,1.2-0.5l7.7-15.9c0.1-0.2,0.1-0.5,0-0.7
	c-0.1-0.2-0.3-0.4-0.5-0.5l-16.3-7.1l-5.3-41.3C162.7,147.5,162.2,147.1,161.7,147.2z"/>
<path class="st0" d="M167.1,189c-0.3,0-0.6,0.2-0.7,0.4l-9.8,16.1c-0.3,0.4-0.1,1,0.3,1.3c0,0,0,0,0,0c0.4,0.3,1,0.1,1.3-0.3
	c0,0,0,0,0,0L167,192l8.3,21.6c0.2,0.5,0.7,0.7,1.2,0.5s0.7-0.7,0.5-1.2l-9-23.3c-0.1-0.3-0.4-0.6-0.8-0.6L167.1,189z"/>
<path class="st0" d="M203.2,41.7c-0.4,0-0.7,0.3-0.8,0.6l-8.4,22.5l-21.7,4.5c-0.3,0.1-0.5,0.2-0.6,0.5c-0.1,0.2-0.1,0.5,0,0.8
	l16.8,42.2c0.2,0.4,0.7,0.7,1.1,0.5l25-7.3c0.5-0.1,0.8-0.7,0.6-1.2c-0.1-0.5-0.7-0.8-1.2-0.6l0,0l-24.1,7l-16.2-40.4l21.1-4.3
	c0.3-0.1,0.6-0.3,0.7-0.6l8.6-23c0.2-0.5-0.1-1-0.6-1.2C203.5,41.7,203.4,41.7,203.2,41.7z"/>
<path class="st0" d="M203.2,41.7c-0.1,0-0.2,0-0.4,0.1c-0.4,0.2-0.6,0.6-0.5,1l9.9,56.2l-16.7-33.8c-0.2-0.5-0.8-0.7-1.2-0.4
	c-0.5,0.2-0.7,0.8-0.4,1.2l0,0l19.6,39.5c0.2,0.5,0.8,0.6,1.3,0.4c0.3-0.2,0.5-0.6,0.5-1l-10.5-59.6l19,19.1c0.4,0.3,1,0.2,1.3-0.3
	c0.2-0.3,0.2-0.7,0-1L204,42C203.8,41.8,203.5,41.7,203.2,41.7z"/>
<path class="st0" d="M183.1,18.4c-0.4,0-0.8,0.3-0.8,0.7l-10.5,50.3l-17,3.7c-0.3,0.1-0.5,0.3-0.6,0.5l-16.4,38.4L91,115.6l0,0
	c-0.5,0-0.9,0.5-0.9,1c0,0.1,0,0.1,0,0.2l12,40.6c0.1,0.4,0.5,0.7,1,0.7l17.5-1.3c0.5-0.1,0.9-0.5,0.8-1.1c-0.1-0.5-0.5-0.8-0.9-0.8
	l-16.8,1.3l-11.5-38.8l46.1-3.3l0,0c0.3,0,0.7-0.2,0.8-0.6l16.4-38.6l17.1-3.7c0.4-0.1,0.6-0.4,0.7-0.7l10.6-50.9
	c0.1-0.5-0.2-1-0.7-1.1c0,0,0,0,0,0C183.2,18.4,183.2,18.4,183.1,18.4z"/>
<path class="st0" d="M296.2,203.1l12.4,10.7c0.3,0.3,0.4,0.8,0.2,1.2l-12.6,21.2c-0.3,0.4-0.8,0.6-1.3,0.3c0,0-0.1,0-0.1-0.1
	l-33.2-26c-0.3-0.2-0.4-0.6-0.3-1c0.1-0.3,0.4-0.6,0.7-0.7l33.4-5.8h0.1C295.8,202.8,296.1,202.9,296.2,203.1z M295.2,234.3
	l11.7-19.7l-11.5-9.9l-30.9,5.4L295.2,234.3z"/>
<path class="st0" d="M295.6,184.3c-0.5,0-0.9,0.4-0.9,0.9l0,18.6l-0.3,31.1c0,0.5,0.4,0.9,0.9,0.9c0.5,0,0.9-0.4,0.9-0.9
	c0,0,0,0,0,0l0.3-31.1l0-18.6C296.6,184.7,296.2,184.3,295.6,184.3C295.7,184.3,295.7,184.3,295.6,184.3L295.6,184.3z"/>
<path class="st0" d="M295,154c-0.3,0-0.5,0.2-0.7,0.4c-0.3,0.4-0.2,1,0.2,1.3c0,0,0,0,0,0l14,9.8l-1.4,48.9c0,0.5,0.4,0.9,0.9,1
	c0.5,0,0.9-0.4,1-0.9l1.4-49.4c0-0.3-0.1-0.6-0.4-0.8l-14.4-10.1C295.4,154,295.2,154,295,154z"/>
<path class="st0" d="M315.2,155l15.3,0.5c0.4,0,0.8,0.3,0.9,0.8c0.1,0.4-0.2,0.8-0.6,1l-21,8.6c-0.5,0.2-1,0-1.2-0.5
	c-0.1-0.3-0.1-0.6,0.1-0.8l5.7-9.1C314.5,155.1,314.8,155,315.2,155L315.2,155z M326.1,157.2l-10.5-0.3l-3.9,6.2L326.1,157.2z"/>
<path class="st0" d="M318.2,124.1c-0.4,0-0.8,0.4-0.9,0.8l-3.2,30.9c0,0.5,0.3,1,0.8,1c0.5,0,0.9-0.3,1-0.8l3.1-30.1l13.6-0.7
	l-3.2,31.1c0,0.5,0.3,1,0.8,1c0.5,0,0.9-0.3,1-0.8l3.3-32.1c0-0.3-0.1-0.5-0.2-0.7c-0.2-0.2-0.5-0.3-0.7-0.3L318.2,124.1
	L318.2,124.1z"/>
<path class="st0" d="M80.2,99.4c-0.5,0-0.9,0.5-0.9,1c0,0.2,0.1,0.3,0.2,0.4L90.3,117l29.3,38.9c0.3,0.4,0.9,0.5,1.3,0.2
	c0.4-0.3,0.5-0.9,0.2-1.3l-29.3-38.9L81,99.8C80.8,99.5,80.5,99.4,80.2,99.4z"/>
<path class="st0" d="M119.6,71c0.4,0.1,0.7,0.4,0.8,0.7l2.9,15.2c0.1,0.3-0.1,0.7-0.3,0.9c-20.6,15.5-21.1,15.6-21.4,15.6
	c-0.2,0-0.5-0.1-0.7-0.2c-0.3-0.3-0.4-0.8-0.2-1.2l18.1-30.6c0.2-0.3,0.4-0.4,0.7-0.4C119.5,71,119.5,71,119.6,71z M121.3,86.7
	L119,74.5l-14.7,24.9C108.5,96.3,115.8,90.8,121.3,86.7L121.3,86.7z"/>
<path class="st0" d="M94.3,68.4l25.2,2.6c0.5,0.1,0.9,0.5,0.8,1c0,0.1-0.1,0.3-0.1,0.4c-0.1,0.1-4.4,7.8-8.9,15.3
	c-9.2,15.8-9.6,15.8-10.2,15.8c-1.1,0.1-1.1,0.1-4.6-17.4c-1.6-8.2-3.2-16.6-3.2-16.7c-0.1-0.3,0-0.6,0.2-0.8
	c0.2-0.2,0.4-0.3,0.6-0.3C94.2,68.4,94.3,68.4,94.3,68.4z M117.9,72.7l-22.5-2.3c2,10.7,4.9,25.3,6,30.2
	C104.3,96.3,112.4,82.3,117.9,72.7z"/>
<path class="st0" d="M94.4,68.4c0.4,0.1,0.7,0.4,0.8,0.7c6.4,32.8,6.3,33,6.3,33.3c-0.1,0.4-0.4,0.6-0.7,0.7
	c-0.4,0.1-0.7-0.1-0.9-0.4l-13.8-20c-0.2-0.3-0.2-0.7,0-1l7.6-12.9c0.2-0.3,0.4-0.4,0.7-0.4C94.3,68.4,94.3,68.4,94.4,68.4z
	 M98.9,98.2c-1.1-6-3.3-17.3-5.1-26.3l-6,10.3L98.9,98.2z"/>
<path class="st0" d="M133.4,9h-0.2c-0.3,0.1-0.6,0.4-0.6,0.7l-14.1,62c-0.1,0.5,0.2,1,0.7,1.1c0.5,0.1,1-0.2,1.1-0.7L134,11.8
	l6.4,6.3l-19,68.7c-0.1,0.5,0.2,1,0.7,1.2c0.5,0.1,1-0.2,1.1-0.7l19.1-69.3c0.1-0.3,0-0.7-0.2-0.9l-8-7.9C133.9,9.1,133.7,9,133.4,9
	z"/>
<path class="st0" d="M96.4,10.5c-0.2,0-0.3,0.1-0.4,0.1L78.3,21.8c-0.3,0.2-0.5,0.6-0.4,0.9l7.9,59.7c0.1,0.5,0.5,0.9,1,0.8
	s0.9-0.5,0.8-1l0,0L79.8,23l15.7-9.9l-2.3,56.2c0,0.5,0.3,1,0.9,1c0,0,0,0,0,0c0.5,0,1-0.3,1-0.8c0,0,0,0,0-0.1l2.3-58
	c0-0.3-0.2-0.7-0.5-0.8C96.8,10.5,96.6,10.5,96.4,10.5z"/>
<path class="st0" d="M78.7,21.6c-0.1,0-0.3,0.1-0.4,0.1l-23.6,14c-0.3,0.2-0.5,0.5-0.5,0.8c0,0.3,0.2,0.7,0.5,0.8L73.7,46
	c0.3,0.1,0.7,0.1,0.9-0.1l6.5-4.8c0.4-0.3,0.5-0.9,0.2-1.3s-0.9-0.5-1.3-0.2l-6,4.5l-16.8-7.6l22-13.1c0.4-0.3,0.6-0.8,0.3-1.3
	C79.3,21.8,79,21.6,78.7,21.6z"/>
<path class="st0" d="M74.1,44.2c-0.4,0-0.8,0.4-0.8,0.8l-8.9,73.3c-0.1,0.4,0.2,0.9,0.6,1l11.9,4.4c0.3,0.1,0.6,0.1,0.8-0.1
	c0.2-0.1,0.4-0.4,0.4-0.7l7.5-55.5c0.1-0.5-0.3-1-0.8-1c0,0,0,0,0,0c-0.5,0-0.9,0.3-1,0.8l-7.3,54.4l-10.1-3.7l8.8-72.6
	c0-0.5-0.3-0.9-0.8-1L74.1,44.2z"/>
<path class="st0" d="M55.1,35.6c-0.5,0-0.8,0.4-0.9,0.9l-5,85.9c0,0.3,0.1,0.6,0.3,0.8c0.2,0.2,0.5,0.2,0.8,0.2l15-4
	c0.5-0.1,0.8-0.6,0.7-1.1c0,0,0,0,0,0c-0.1-0.5-0.6-0.8-1.1-0.7l-13.8,3.7l4.9-84.7c0-0.5-0.3-1-0.9-1c0,0,0,0,0,0L55.1,35.6z"/>
<path class="st0" d="M50.1,121.6c-0.1,0-0.3,0.1-0.4,0.1c-0.4,0.3-0.6,0.8-0.4,1.3c0,0,0,0,0,0l12.4,21.8c0.2,0.3,0.5,0.4,0.8,0.5
	c0.3,0,0.6-0.1,0.8-0.4l14.5-21.4c0.3-0.4,0.3-1-0.1-1.3c-0.4-0.3-1-0.3-1.3,0.1c-0.1,0.1-0.1,0.2-0.2,0.2l-13.6,20.1L51,122
	C50.8,121.7,50.5,121.5,50.1,121.6z"/>
<path class="st0" d="M65,117.8c-0.5,0-0.8,0.4-0.8,0.8l-2.4,25.5c-0.1,0.5,0.3,1,0.8,1.1c0.5,0.1,1-0.3,1.1-0.8c0,0,0-0.1,0-0.1
	l2.4-25.5c0-0.5-0.3-1-0.8-1L65,117.8z"/>
<path class="st0" d="M42.8-0.5c0.3,0,0.5,0.2,0.6,0.4l16.7,23.6c0.2,0.3,0.2,0.7,0,1L40.4,76.9c-0.1,0.3-0.4,0.6-0.8,0.6
	c-0.4,0-0.7-0.1-0.9-0.4l-5.4-8.9l-17.4,7.5c-0.3,0.1-0.6,0.1-0.8,0c-0.3-0.1-0.4-0.4-0.5-0.7L8.2,28c0-0.3,0.1-0.6,0.3-0.8
	L42.1-0.3c0.1-0.1,0.3-0.2,0.5-0.2L42.8-0.5z M16.2,73.4l17.1-7.3c0.4-0.2,0.9,0,1.2,0.4l4.9,8l19-50.3L42.5,1.8L10.1,28.2
	L16.2,73.4z"/>
<path class="st0" d="M42.6-0.5c-0.4,0-0.8,0.4-0.8,0.8l-9,66.6c-0.1,0.5,0.3,1,0.8,1.1c0.5,0.1,1-0.3,1-0.8l9-66.6
	c0-0.5-0.3-0.9-0.8-1L42.6-0.5z"/>
<path class="st0" d="M15.4,73.8c-0.2,0-0.4,0.1-0.6,0.3c-0.4,0.4-0.4,0.9,0,1.3c0,0,0,0,0,0l11.4,12c0.3,0.3,0.9,0.4,1.2,0.1
	l12.7-10.1c0.4-0.3,0.5-0.9,0.1-1.3c0,0,0,0,0-0.1c-0.3-0.4-0.9-0.5-1.3-0.1c0,0,0,0,0,0l-12,9.6L16.1,74.1
	C15.9,73.9,15.7,73.8,15.4,73.8z"/>
<path class="st0" d="M33.4,66.2c-0.4,0-0.7,0.3-0.8,0.6l-6.7,19.6c-0.2,0.5,0.1,1,0.6,1.2c0.5,0.2,1-0.1,1.2-0.6l6.7-19.6
	c0.2-0.5-0.1-1-0.6-1.2C33.7,66.2,33.6,66.2,33.4,66.2z"/>
<path class="st0" d="M72.1-7.6H72c-0.3,0.1-0.5,0.3-0.6,0.5L58.6,23.5c-0.2,0.5,0,1,0.5,1.2c0,0,0,0,0,0c0.5,0.2,1,0,1.2-0.5
	L72.6-5.2l23.3,17.3c0.4,0.3,1,0.2,1.3-0.3c0.3-0.4,0.2-0.9-0.2-1.2l-24.2-18C72.6-7.5,72.4-7.6,72.1-7.6z"/>
<path class="st0" d="M159.1-21.2H159l-50,7.4c-0.5,0.1-0.8,0.5-0.8,1c0.1,0.5,0.5,0.8,1,0.8l49-7.2l-2.3,50.9l-13.7-14.4
	c-0.4-0.4-1-0.4-1.3,0c-0.4,0.4-0.4,0.9,0,1.3c0,0,0,0,0,0l15.1,16c0.3,0.3,0.7,0.4,1,0.2c0.3-0.1,0.6-0.5,0.6-0.8l2.5-54.2
	c0-0.3-0.1-0.5-0.3-0.7C159.6-21.1,159.4-21.2,159.1-21.2z"/>
<path class="st0" d="M40.6-73.1c-0.2,0-0.3,0.1-0.5,0.2c-0.3,0.2-0.4,0.6-0.4,0.9L58,23.1c0.1,0.5,0.6,0.8,1.1,0.7c0,0,0,0,0,0
	c0.5-0.1,0.8-0.6,0.7-1.1c0,0,0,0,0,0L42-70.3l24.4,14.9l4.9,48.9c0,0.5,0.5,0.9,1,0.8c0.5-0.1,0.9-0.5,0.8-1l-5-49.3
	c0-0.3-0.2-0.6-0.4-0.7L41.2-72.9C41-73,40.8-73.1,40.6-73.1z"/>
<path class="st0" d="M84.4-80.9L84.4-80.9L40.5-73c-0.3,0-0.5,0.2-0.6,0.4L17.6-37.4c-0.2,0.3-0.2,0.7,0,1L41.9,0.9
	c0.3,0.4,0.8,0.6,1.3,0.3c0,0,0,0,0,0c0.4-0.3,0.6-0.9,0.3-1.3L19.5-36.9l21.7-34.4l43.4-7.8c0.5-0.1,0.8-0.6,0.8-1.1c0,0,0,0,0,0
	C85.3-80.6,84.8-81,84.4-80.9z"/>
<path class="st0" d="M160-20.7l23.9,39.6c0.1,0.3,0.1,0.6,0,0.9l-28.6,55.2c-0.2,0.4-0.6,0.6-1.1,0.5c-0.4-0.1-0.7-0.5-0.7-1
	l4.7-94.7c0-0.4,0.3-0.8,0.7-0.9h0.2C159.5-21.2,159.8-21,160-20.7z M182,19.4l-22-36.5l-4.4,87.4L182,19.4z"/>
<path class="st0" d="M82.9-17.1c-0.2,0-0.4,0.1-0.5,0.2L71.6-7.3C71.3-7,71.2-6.4,71.6-6c0,0,0,0,0,0c0.3,0.4,0.9,0.4,1.3,0.1
	l9.8-8.7l13.3,26c0.2,0.3,0.5,0.5,0.8,0.5c0.3,0,0.7-0.2,0.8-0.5l11.7-22.7L132.6,11c0.2,0.2,0.4,0.3,0.7,0.3c0.3,0,0.5-0.1,0.7-0.3
	l26-29.7c0.3-0.4,0.3-1-0.1-1.3c-0.4-0.3-1-0.3-1.3,0.1c0,0,0,0,0,0L133.2,9l-23.4-22.5c-0.2-0.2-0.5-0.3-0.8-0.2
	c-0.3,0-0.5,0.2-0.7,0.5L96.8,8.9L83.8-16.6c-0.1-0.3-0.4-0.4-0.7-0.5C83-17.1,83-17.1,82.9-17.1z"/>
<path class="st0" d="M141.3,17c-0.5,0-0.9,0.5-0.9,1l1,41.6l-14.9,9.6c-0.4,0.3-0.6,0.8-0.3,1.3c0,0,0,0,0,0l10,14.6
	c0.3,0.4,0.8,0.5,1.2,0.3l17.4-10c0.4-0.2,0.6-0.8,0.4-1.2c0,0,0,0,0,0c-0.3-0.4-0.8-0.6-1.3-0.3c0,0,0,0,0,0l-16.7,9.6l-9-13.1
	l14.5-9.3c0.3-0.2,0.4-0.5,0.4-0.8l-1-42.1C142.2,17.4,141.8,17,141.3,17L141.3,17z"/>
<path class="st0" d="M142.3,59.2h-0.1c-0.3,0.1-0.6,0.4-0.7,0.7l-5.3,24.2l-25.7,29.4l-9.2-11.8c-0.4-0.4-0.9-0.4-1.3,0
	c-0.3,0.3-0.4,0.8-0.1,1.2l9.9,12.7c0.2,0.2,0.4,0.4,0.7,0.4c0.3,0,0.5-0.1,0.7-0.3l26.6-30.5c0.1-0.1,0.2-0.3,0.2-0.4l4.9-22.6
	l10.9,13c0.3,0.4,0.9,0.4,1.3,0.1c0.4-0.3,0.4-0.9,0.1-1.3l-12.1-14.4C142.9,59.3,142.6,59.2,142.3,59.2z"/>
<path class="st0" d="M119-58.3c-0.5,0-0.8,0.4-0.9,0.9c0,0.5,0.3,1,0.9,1c0,0,0,0,0,0l17.4,1.1l21.9,35.6c0.2,0.3,0.5,0.5,0.9,0.4
	l0,0l45.8-3.6l-5.4,40L183,18.4c-0.5,0-0.9,0.4-0.9,0.9c0,0.5,0.4,0.9,0.9,0.9c0,0,0.1,0,0.1,0l17.4-1.3c0.4,0,0.8-0.4,0.9-0.8
	l5.6-42c0-0.3-0.1-0.6-0.2-0.8c-0.2-0.2-0.5-0.3-0.8-0.3l0,0l-46.3,3.6l-21.9-35.5c-0.2-0.3-0.4-0.4-0.7-0.4l-17.9-1.1H119z"/>
<path class="st0" d="M18.3,92.2L52,92.9c0.5,0,0.9,0.4,0.9,0.9c0,0.2-0.1,0.5-0.3,0.6L24,125.3c-0.2,0.2-0.4,0.3-0.7,0.3
	c-0.3,0-0.5-0.1-0.7-0.3L7,106.1c-0.3-0.3-0.3-0.8,0-1.2l10.6-12.4C17.8,92.3,18,92.2,18.3,92.2L18.3,92.2z M23.3,123.2l26.6-28.4
	l-31.2-0.7l-9.8,11.5L23.3,123.2z"/>
<path class="st0" d="M15.4,73.8L15.4,73.8c-0.6,0.1-0.9,0.6-0.8,1.1l2.8,18.3l4.9,30.8c0.1,0.5,0.6,0.8,1.1,0.8
	c0.5-0.1,0.9-0.6,0.8-1.1L19.2,93l-2.8-18.4C16.3,74.2,15.9,73.8,15.4,73.8z"/>
<path class="st0" d="M11.4,43.8c-0.2,0-0.4,0.1-0.6,0.3L-1.7,56.2C-2,56.5-2.1,56.8-2,57.1l8.8,48.6c0.1,0.5,0.6,0.9,1.1,0.8
	c0.5-0.1,0.9-0.6,0.8-1.1c0,0,0,0,0,0l-8.7-48.1l12.2-11.8c0.4-0.4,0.4-1,0-1.3c0,0,0,0,0,0C12,43.9,11.7,43.8,11.4,43.8z"/>
<path class="st0" d="M18.4-37.8c-0.3,0-0.6,0.2-0.7,0.4l-34.2,55.6c-0.1,0.2-0.2,0.5-0.1,0.8c0.1,0.3,0.3,0.5,0.5,0.6l25,9.2
	c0.5,0.1,1-0.2,1.1-0.7c0.1-0.4-0.1-0.8-0.5-1l-23.9-8.8l33.6-54.6c0.3-0.4,0.1-1-0.3-1.3C18.7-37.8,18.5-37.9,18.4-37.8z"/>
<path class="st0" d="M206-24.8c-0.3,0-0.6,0.2-0.8,0.5l-22.9,42.8c-0.2,0.3-0.1,0.7,0.1,1l20.1,23.8c0.3,0.4,0.9,0.4,1.3,0.1
	c0.2-0.2,0.4-0.5,0.3-0.8l-2.6-22.9l46.3,24.9c0.3,0.2,0.6,0.2,0.9,0c0.3-0.2,0.4-0.5,0.4-0.8l-2.1-46.7c0-0.5-0.5-0.9-1-0.9
	c0,0,0,0,0,0c-0.5,0-0.9,0.4-0.9,0.9c0,0,0,0,0,0.1l2.1,45l-46.5-25c-0.5-0.2-1-0.1-1.3,0.4c-0.1,0.2-0.1,0.4-0.1,0.5l2.5,21.5
	l-17.7-20.9l22.6-42.3c0.2-0.5,0.1-1-0.4-1.3C206.4-24.8,206.2-24.9,206-24.8z"/>
<path class="st0" d="M340.9,55.6c-0.4,0-0.8,0.4-0.9,0.8l-7.2,67.8c0,0.5,0.3,0.9,0.8,1c0.5,0,0.9-0.3,1-0.8l7.2-67.7
	c0-0.5-0.3-0.9-0.8-1L340.9,55.6z"/>
<path class="st0" d="M249-30.9c-0.5,0-0.8,0.4-0.9,0.8l-2.4,25.5c0,0.2,0,0.4,0.1,0.5l29.9,51.9c0.2,0.3,0.6,0.5,0.9,0.5
	c0.4-0.1,0.7-0.3,0.8-0.7l10.6-39c0.1-0.5-0.1-1-0.6-1.1c0,0,0,0,0,0c-0.5-0.1-1,0.2-1.1,0.7l-10,36.9L247.6-4.6l2.4-25.2
	c0-0.5-0.3-1-0.8-1c0,0,0,0,0,0C249.1-30.9,249.1-30.9,249-30.9z"/>
<path class="st0" d="M376.8,48.8l22.6,27.5c0.3,0.3,0.3,0.9,0,1.2c-0.2,0.2-0.4,0.3-0.6,0.3c-0.3,0-0.9,0.1-23.7-12.2
	c-0.3-0.2-0.5-0.5-0.5-0.8l0.6-15.5c0-0.4,0.3-0.7,0.6-0.8c0.1,0,0.1,0,0.2,0C376.3,48.5,376.6,48.6,376.8,48.8z M395.3,74.2
	l-18.4-22.4l-0.5,12.4C382.5,67.6,390.7,71.9,395.3,74.2L395.3,74.2z"/>
<path class="st0" d="M400.8,42.1c0.5,0,1,0.3,1,0.8c0,0.1,0,0.2,0,0.3c0,1.2-0.4,9-0.7,16.8c-0.8,17.8-0.8,17.8-1.9,17.9
	c-0.7,0-1,0.1-12.6-14.1C381,57,375.4,50,375.4,50c-0.2-0.2-0.3-0.6-0.2-0.9c0.1-0.3,0.3-0.5,0.6-0.6l24.8-6.3L400.8,42.1
	L400.8,42.1z M398.4,75c0.4-5,1-19.9,1.5-30.8l-22.2,5.7C384.7,58.7,394.9,71.2,398.4,75z"/>
<path class="st0" d="M401.6,42.5l9.5,11.6c0.2,0.3,0.3,0.7,0.1,1l-10.8,21.9c-0.2,0.3-0.5,0.5-0.9,0.5c-0.4,0-0.7-0.2-0.8-0.6
	c-0.1-0.3-0.2-0.5,1.2-33.9c0-0.5,0.5-0.9,1-0.9C401.2,42.1,401.4,42.3,401.6,42.5L401.6,42.5z M409.2,54.8l-7.6-9.3
	c-0.4,9.2-0.9,20.8-1.1,26.8L409.2,54.8z"/>
<path class="st0" d="M352.6-10.6c-0.3,0-0.5,0.2-0.7,0.4l-6.7,9c-0.2,0.3-0.3,0.6-0.1,0.9l29.6,65.6c0.2,0.5,0.7,0.7,1.2,0.5
	c0.5-0.2,0.7-0.7,0.5-1.2c0,0,0-0.1,0-0.1L347-0.6l5.4-7.2l22.8,57.6c0.2,0.5,0.8,0.7,1.2,0.5s0.7-0.8,0.5-1.2l-23.4-59.1
	c-0.1-0.3-0.4-0.5-0.7-0.6L352.6-10.6z"/>
<path class="st0" d="M389.8-14.8c-0.2,0-0.4,0.1-0.5,0.2c-0.3,0.2-0.4,0.6-0.3,0.9l11.1,56.9c0.1,0.5,0.6,0.8,1.1,0.7
	c0.4-0.1,0.7-0.6,0.7-1l-10.8-55.2l17.2,7.4l1.1,59.6c0,0.5,0.4,0.9,0.9,0.9c0.5,0,0.9-0.4,0.9-0.9c0,0,0,0,0,0l-1.1-60.2
	c0-0.4-0.2-0.7-0.6-0.8l-19.3-8.4C390.1-14.8,390-14.8,389.8-14.8z"/>
<path class="st0" d="M409.1-6.4c-0.4,0-0.7,0.2-0.8,0.6c-0.2,0.5,0,1,0.5,1.2l24,9.6L417.2,15l-6.7-3.5c-0.5-0.2-1,0-1.2,0.5
	c-0.2,0.4,0,0.9,0.4,1.1l7.2,3.8c0.3,0.2,0.6,0.2,0.9,0l17.6-11.4c0.4-0.3,0.5-0.9,0.3-1.3c-0.1-0.2-0.2-0.3-0.4-0.3L409.5-6.4
	C409.4-6.4,409.3-6.5,409.1-6.4z"/>
<path class="st0" d="M417.2,15.1H417c-0.5,0.1-0.8,0.6-0.7,1.1c0,0,0,0,0,0l19.8,70.4l-9.6,5.3l-15.6-52.7c-0.1-0.5-0.7-0.8-1.2-0.6
	c-0.5,0.1-0.8,0.7-0.6,1.2c0,0,0,0,0,0l15.9,53.8c0.1,0.5,0.6,0.8,1.1,0.6c0.1,0,0.1,0,0.2-0.1l11.2-6.1c0.4-0.2,0.5-0.7,0.5-1.1
	l-20-71.2C418,15.4,417.6,15.1,417.2,15.1z"/>
<path class="st0" d="M434.8,3.8h-0.1c-0.5,0.1-0.8,0.6-0.7,1.1l17.7,82.9l-14.3-1.5c-0.5-0.1-1,0.2-1.1,0.7c-0.1,0.5,0.2,1,0.7,1.1
	c0.1,0,0.1,0,0.2,0l15.6,1.7c0.5,0.1,1-0.3,1-0.8c0-0.1,0-0.2,0-0.3l-18-84.2C435.6,4,435.2,3.7,434.8,3.8z"/>
<path class="st0" d="M452.8,88c-0.4,0-0.7,0.3-0.8,0.6l-8.6,22l-16.7-17.9c-0.4-0.4-1-0.4-1.3,0s-0.4,1,0,1.3l0,0l17.7,19
	c0.3,0.4,0.9,0.4,1.3,0c0.1-0.1,0.2-0.2,0.2-0.3l9.1-23.4c0.2-0.5-0.1-1-0.5-1.2C453,88.1,452.9,88,452.8,88L452.8,88z"/>
<path class="st0" d="M437.4,86.5h-0.2c-0.5,0.1-0.8,0.6-0.7,1.1l6.3,24.9c0.1,0.5,0.6,0.8,1.1,0.7c0.5-0.1,0.8-0.6,0.7-1.1
	c0,0,0,0,0,0l-6.3-24.9C438.3,86.8,437.9,86.5,437.4,86.5z"/>
<path class="st0" d="M442.3-33.7l37.6,22c0.3,0.2,0.5,0.5,0.5,0.8l0.8,47.3c0,0.3-0.1,0.6-0.4,0.7c-0.2,0.2-0.5,0.2-0.8,0.2
	l-18.5-4.7l-4.1,9.6c-0.2,0.5-0.8,0.7-1.2,0.5c-0.2-0.1-0.3-0.2-0.4-0.4L428.1-6.4c-0.2-0.3-0.3-0.7-0.1-1L441-33.3
	c0.1-0.2,0.3-0.4,0.6-0.5c0.1,0,0.1,0,0.2,0C441.9-33.8,442.1-33.8,442.3-33.7z M456.4,39.8l3.6-8.6c0.2-0.4,0.6-0.7,1.1-0.5
	l18.1,4.6l-0.8-45.6l-36.3-21.3L429.8-7L456.4,39.8z"/>
<path class="st0" d="M441.8-33.8c-0.1,0-0.1,0-0.2,0c-0.5,0.1-0.8,0.7-0.6,1.2l19.1,64.4c0.1,0.5,0.7,0.8,1.1,0.6c0,0,0,0,0,0
	c0.5-0.1,0.8-0.7,0.6-1.1l-19.1-64.4C442.6-33.6,442.2-33.9,441.8-33.8z"/>
<path class="st0" d="M480.2,35.5c-0.3,0-0.5,0.2-0.7,0.4l-9,12.9L457,41.1c-0.4-0.3-1-0.2-1.3,0.2c-0.3,0.4-0.2,1,0.2,1.3
	c0,0,0.1,0.1,0.1,0.1l14.2,8.1c0.4,0.2,0.9,0.1,1.2-0.3L481,37c0.3-0.4,0.2-1-0.2-1.3c0,0,0,0,0,0C480.6,35.6,480.4,35.5,480.2,35.5
	z"/>
<path class="st0" d="M461,30.8c-0.1,0-0.3,0-0.4,0.1c-0.4,0.3-0.6,0.8-0.4,1.3l9.7,18.3c0.2,0.5,0.8,0.6,1.3,0.4s0.6-0.8,0.4-1.3
	l-9.7-18.4C461.7,30.9,461.4,30.7,461,30.8z"/>
<path class="st0" d="M322.4-36.6c-0.3,0-0.5,0.1-0.6,0.3c-0.2,0.2-0.2,0.5-0.2,0.8l10.7,53.2c0.1,0.5,0.6,0.8,1.1,0.7
	c0.2,0,0.4-0.2,0.6-0.4l12.7-18.1c0.3-0.4,0.2-1-0.2-1.3c-0.4-0.3-1-0.2-1.3,0.2c0,0,0,0,0,0l-11.4,16.3l-10-50l49.9-0.3
	c0.5,0,0.9-0.4,0.9-0.9c0,0,0,0,0,0c0-0.5-0.4-0.9-0.9-0.9c0,0,0,0,0,0l-51.1,0.3H322.4z"/>
<path class="st0" d="M322.6-36.6c0.4,0,0.7,0.3,0.8,0.8l18.5,92.2c0.1,0.4-0.1,0.8-0.5,1c-0.4,0.2-0.9,0-1.1-0.3L304,7.6
	c-0.2-0.3-0.2-0.6-0.1-0.9L321.6-36c0.1-0.3,0.4-0.5,0.8-0.6L322.6-36.6z M339.2,52.6l-17-85.1L305.8,6.9L339.2,52.6z"/>
<path class="st0" d="M346-1.5L346-1.5c-0.5,0.1-0.9,0.5-0.8,1l5.4,41.8c0,0.3,0.3,0.6,0.5,0.7l15.9,7L360,63.3l-18.7-7.7
	c-0.5-0.2-1,0-1.2,0.5s0,1,0.5,1.2l19.5,8c0.5,0.2,1,0,1.2-0.4L369,49c0.1-0.2,0.1-0.5,0-0.7c-0.1-0.2-0.3-0.4-0.5-0.5l-16.3-7.2
	L347-0.7C346.9-1.2,346.5-1.6,346-1.5z"/>
<path class="st0" d="M351.4,40.3c-0.3,0-0.5,0.2-0.7,0.4L340.2,56c-0.3,0.4-0.2,1,0.2,1.3c0,0,0,0,0,0c0.4,0.3,1,0.2,1.3-0.2
	l9.5-13.8l8.4,21.7c0.2,0.5,0.7,0.7,1.2,0.5c0.5-0.2,0.7-0.7,0.5-1.2l0,0l-9-23.3c-0.1-0.3-0.4-0.5-0.8-0.6L351.4,40.3z"/>
<path class="st0" d="M367.4-130.3c-0.4,0-0.8,0.3-0.8,0.7l-10.5,50.3L339-75.6c-0.3,0.1-0.5,0.3-0.7,0.6l-16.5,38.4l-46.8,3.4l0,0
	c-0.3,0-0.5,0.2-0.7,0.4c-0.2,0.2-0.2,0.5-0.1,0.8l12,40.6c0.1,0.4,0.5,0.7,1,0.7L304.8,8c0.5,0,0.9-0.4,0.9-0.9
	c0-0.5-0.4-0.9-0.9-0.9c0,0-0.1,0-0.1,0l-16.8,1.3l-11.4-38.8l46.2-3.4c0.3,0,0.7-0.2,0.8-0.6l16.5-38.5l17.2-3.7
	c0.4-0.1,0.6-0.4,0.7-0.7l10.6-50.9c0.1-0.5-0.2-1-0.7-1.1C367.6-130.3,367.5-130.3,367.4-130.3z"/>
<path class="st0" d="M480.8,54.3L493.3,65c0.3,0.3,0.4,0.8,0.2,1.2l-12.7,21.2c-0.1,0.2-0.4,0.4-0.6,0.4c-0.3,0-0.5,0-0.7-0.2
	l-33.3-26.1c-0.4-0.3-0.5-0.9-0.1-1.3c0.1-0.2,0.3-0.3,0.6-0.3l33.5-5.9h0.1C480.4,54.1,480.6,54.2,480.8,54.3z M479.8,85.6
	l11.7-19.7L480,56l-31,5.4L479.8,85.6z"/>
<path class="st0" d="M480.2,35.5c-0.5,0-0.9,0.4-0.9,0.9V55L479,86.1c0.1,0.5,0.5,0.9,1,0.8c0.4,0,0.8-0.4,0.8-0.8l0.3-31.1l0-18.6
	C481.2,36,480.8,35.5,480.2,35.5C480.3,35.5,480.2,35.5,480.2,35.5L480.2,35.5z"/>
<path class="st0" d="M479.6,5.3c-0.3,0-0.5,0.2-0.7,0.4c-0.3,0.4-0.2,1,0.2,1.3c0,0,0,0,0,0l14,9.8l-1.4,48.9c0,0.5,0.4,0.9,0.9,0.9
	s0.9-0.4,0.9-0.9c0,0,0,0,0,0l1.4-49.3c0-0.3-0.1-0.6-0.4-0.8L480.2,5.5C480,5.3,479.8,5.3,479.6,5.3z"/>
<path class="st0" d="M499.8,6.2l15.4,0.5c0.5,0,0.9,0.4,0.9,1c0,0.4-0.2,0.7-0.6,0.8l-21.1,8.6c-0.5,0.2-1,0-1.2-0.5
	c-0.1-0.3-0.1-0.6,0.1-0.8l5.7-9.1C499.2,6.4,499.4,6.3,499.8,6.2L499.8,6.2z M510.8,8.5l-10.5-0.3l-3.9,6.2L510.8,8.5z"/>
<path class="st0" d="M502.9-24.6c-0.4,0-0.8,0.4-0.9,0.8l-3.2,30.9c-0.1,0.5,0.3,1,0.8,1c0.5,0.1,1-0.3,1-0.8l0,0l3.1-30.1l13.3-0.6
	l-2.9,31c-0.1,0.5,0.3,1,0.8,1c0.5,0.1,1-0.3,1-0.8c0,0,0,0,0-0.1l3-32.1c0-0.3-0.1-0.5-0.2-0.7c-0.2-0.2-0.4-0.3-0.7-0.3
	L502.9-24.6L502.9-24.6z"/>
<path class="st0" d="M265.1-48.9l10.8,16.1l29.3,38.9c0.2,0.3,0.2,0.8,0,1.1L277.3,48c-0.2,0.3-0.6,0.5-1,0.4
	c-0.4-0.1-0.6-0.4-0.7-0.8l-4-53.1l-8.2-42.7c-0.1-0.4,0.2-0.8,0.6-1c0.1,0,0.2-0.1,0.3-0.1C264.6-49.3,264.9-49.2,265.1-48.9z
	 M303.3,6.7l-28.9-38.4l-8.3-12.4l7.3,38.2c0,0,0,0.1,0,0.1l3.8,50.5L303.3,6.7z"/>
<path class="st0" d="M246.6-5.3c-0.1,0-0.2,0-0.3,0.1l-46.2,22.4c-0.5,0.2-0.7,0.8-0.4,1.2c0.2,0.5,0.8,0.7,1.2,0.4l46-22.4
	l25.3-1.2l14.3,13.8c0.4,0.4,1,0.4,1.3,0c0.4-0.4,0.4-0.9,0-1.3L273.1-6.3c-0.2-0.2-0.4-0.3-0.7-0.3L246.6-5.3L246.6-5.3z"/>
</svg>
